<svg width="105" height="100" viewBox="0 0 105 100" fill="none" xmlns="http://www.w3.org/2000/svg">
<path d="M42.5675 74.3129C42.2132 74.5542 41.9797 74.3052 41.7446 74.1072C40.953 73.4345 40.1787 72.7416 39.3746 72.0843C39.0956 71.8569 39.0752 71.6002 39.0454 71.277C38.895 69.5866 38.0689 68.3029 36.5219 67.5374C35.0453 66.8105 33.5672 66.8878 32.2145 67.8219C30.8352 68.7715 30.2427 70.1696 30.4465 71.7858C30.6784 73.6262 31.8211 74.8202 33.6205 75.3213C35.1707 75.7528 36.5658 75.3739 37.7366 74.2773C38.0188 74.0129 38.2743 73.8412 38.5987 74.1629C39.9671 75.5161 41.5236 76.6529 42.9891 77.8948C43.0424 77.9412 43.0612 78.0262 43.0942 78.0912C43.0001 78.4469 42.6756 78.5459 42.4202 78.7067C41.0314 79.5759 39.6348 80.4327 38.2476 81.305C38.1239 81.3943 37.9798 81.452 37.828 81.4731C37.6762 81.4941 37.5215 81.4778 37.3777 81.4256C35.793 80.9384 34.3055 81.8246 33.9309 83.4392C33.6268 84.7492 34.7162 86.1921 36.2037 86.4442C37.5595 86.6762 39.0846 85.3956 39.0909 83.931C39.094 83.3464 39.3009 83.0278 39.7837 82.7711C41.4154 81.9019 43.0377 81.0158 44.6632 80.1358C44.9876 79.961 45.2604 79.828 45.646 80.1358C48.5489 82.468 51.6775 84.4801 54.8892 86.3638C55.4378 86.6886 55.6321 87.0443 55.6259 87.6567C55.6008 90.5952 55.6337 93.5337 55.6023 96.4722C55.5961 97.1465 55.803 97.4002 56.4958 97.36C57.2764 97.3136 58.0632 97.3352 58.8469 97.3677C59.4238 97.3924 59.626 97.1666 59.6197 96.599C59.5977 94.4075 59.6072 92.2176 59.6119 90.0261C59.6119 89.7245 59.546 89.4059 59.7263 89.143C59.8626 89.0394 59.9927 89.0548 60.1119 89.1121C61.6323 89.8637 63.2076 90.4839 64.7829 91.1071C65.123 91.2417 65.3205 91.4629 65.4866 91.7799C66.7672 94.2142 69.272 94.6024 71.2188 92.6723C71.4617 92.4295 71.6812 92.2037 72.084 92.2532C74.9681 92.6089 77.8663 92.6181 80.7645 92.564C81.4683 92.5516 81.9871 92.6878 82.2441 93.3899C82.2943 93.5291 82.3946 93.6961 82.5185 93.758C83.6972 94.3457 83.5827 95.4113 83.5138 96.4289C83.4652 97.1403 83.7113 97.4063 84.4386 97.36C85.1909 97.3105 85.9558 97.3058 86.7098 97.363C87.4888 97.4218 87.7443 97.1048 87.6612 96.381C87.622 96.05 87.6675 95.7113 87.6534 95.3757C87.6126 94.4168 87.6769 93.5136 88.2569 92.6537C88.8023 91.8433 88.7334 90.9061 88.1895 90.0957C87.8572 89.6008 87.912 89.2373 88.2098 88.7718C90.4089 85.3276 92.7554 81.9762 94.8495 78.4655C95.7618 76.9343 96.7837 75.4651 97.7414 73.9603C98.0612 73.4561 98.4327 73.2086 99.0377 73.501C99.2211 73.5876 99.4374 73.62 99.6428 73.6494C100.911 73.8304 100.912 73.8288 100.912 75.1264C100.912 82.1881 100.908 89.2513 100.908 96.3145C100.908 97.3352 100.912 97.3306 101.939 97.3568C102.199 97.363 102.466 97.3723 102.715 97.4326C103.328 97.578 103.775 97.9198 103.765 98.5957C103.756 99.2947 103.392 99.768 102.674 99.9041C102.345 99.9659 102 99.9876 101.663 99.9876C68.6952 99.9922 35.7287 99.9922 2.76074 99.9922C2.23878 99.9922 1.71055 100.043 1.20427 99.884C0.6008 99.6922 0.207372 99.304 0.207372 98.6513C0.207372 97.9863 0.621178 97.6059 1.23718 97.4651C1.61337 97.38 2.01306 97.3615 2.40336 97.3615C9.79541 97.3507 17.189 97.346 24.5827 97.3445C25.6062 97.3445 25.6172 97.3476 25.6172 96.3098C25.6172 86.3344 25.6156 76.359 25.6219 66.3836C25.6219 65.7681 25.6626 65.1464 25.7504 64.537C25.8852 63.5905 26.5357 62.9889 27.5028 62.9842C31.865 62.9657 36.2288 62.9626 40.591 62.9873C41.7712 62.9935 42.4562 63.7405 42.4625 64.9159C42.4719 67.4152 42.4593 69.916 42.4703 72.4168C42.4719 73.0076 42.5299 73.5968 42.5628 74.2526C42.5628 74.3176 42.5675 74.3145 42.5675 74.3145V74.3129ZM51.3138 54.54C49.5928 54.5415 47.947 54.526 46.3011 54.5523C45.6945 54.5616 45.4673 54.3451 45.4845 53.7388C45.519 52.4768 45.4359 51.2102 45.5159 49.9513C45.613 48.4016 44.9578 47.2633 43.7572 46.371C42.2085 45.2203 40.7226 44.0047 39.5549 42.4581C36.7758 38.7819 35.4811 34.6835 35.9059 30.0809C36.4952 23.7013 39.743 19.043 45.4437 16.1447C54.0098 11.7896 64.3675 15.2276 68.6779 23.7229C72.0291 30.3283 70.6921 38.7015 65.4365 43.9119C64.5712 44.7687 63.6073 45.5234 62.6151 46.2395C61.3846 47.1288 60.6511 48.2392 60.7671 49.843C60.8595 51.1251 60.753 52.4196 60.789 53.7079C60.8078 54.3621 60.5398 54.5616 59.9112 54.5508C58.3189 54.5168 56.726 54.5168 55.1337 54.5508C54.3782 54.5709 54.1352 54.3018 54.1383 53.5672C54.1619 48.7728 54.1509 43.98 54.1509 39.1871C54.1509 38.3365 54.1681 37.4859 54.1415 36.6353C54.1258 36.0909 54.3264 35.8249 54.9001 35.8125C55.7111 35.8009 56.512 35.6327 57.2576 35.3176C59.5774 34.3278 60.6072 31.694 59.4159 29.7685C58.1714 27.7548 55.4503 27.4935 53.7684 29.2272C53.6086 29.3927 53.4596 29.569 53.3217 29.7236C53.0333 29.7144 52.9502 29.4994 52.8186 29.3494C51.4972 27.8368 49.4486 27.6621 47.9375 28.9318C46.5112 30.1304 46.3388 32.3497 47.5394 33.8035C48.4611 34.9201 49.6586 35.5217 51.074 35.7584C51.4282 35.8171 51.7794 35.896 52.1508 35.9687C52.1649 36.1775 52.1822 36.3291 52.1822 36.4791C52.1822 42.2014 52.1728 47.9222 52.1838 53.6429C52.1853 54.2198 52.0975 54.6219 51.3138 54.54ZM39.6473 27.4332C38.5972 30.8573 38.7461 34.1886 40.3496 37.489C40.801 37.2415 41.1317 37.0312 41.4844 36.8734C41.9907 36.6476 42.0737 36.3631 41.8715 35.8357C39.7524 30.3361 42.1114 23.9936 47.3231 21.1231C49.005 20.1983 50.784 19.5611 52.7277 19.4528C53.4173 19.4142 53.6995 19.0384 53.654 18.3842C53.6086 17.716 53.1869 17.5335 52.5834 17.5397C51.5123 17.5454 50.4478 17.7053 49.4235 18.0145C44.5911 19.4961 41.406 22.6604 39.6473 27.4332Z" fill="black"/>
<path d="M64.3455 71.0172C66.2798 71.0388 68.1074 71.3419 69.9476 71.5445C70.3959 71.594 70.6749 71.7765 70.863 72.2328C71.2705 73.2195 72.41 73.8613 73.3662 73.7453C74.595 73.5938 75.5136 72.8065 75.7377 71.7069C75.965 70.5934 75.4258 69.5015 74.3615 68.92C73.3897 68.388 72.2141 68.504 71.4053 69.3144C71.0056 69.7165 70.6655 69.7443 70.1607 69.5788C69.2682 69.291 68.3622 69.0453 67.4459 68.8427C66.924 68.7251 66.6936 68.487 66.6936 67.9519C66.703 62.6935 66.692 57.4367 66.7092 52.1799C66.7139 51.006 67.4365 50.3085 68.6388 50.3039C72.9492 50.2884 77.2581 50.2884 81.567 50.3116C82.9025 50.3194 83.5075 51.0277 83.5106 52.4861C83.5169 60.7587 83.5185 69.0314 83.52 77.304C83.5216 80.5518 83.5091 83.798 83.5294 87.0443C83.5326 87.6011 83.4276 88.0217 82.9181 88.3512C82.3866 88.6961 82.0031 89.2226 81.8413 89.8297C81.7551 90.139 81.6376 90.306 81.2708 90.3292C78.4243 90.5117 75.5841 90.3911 72.7439 90.1993C72.2533 90.1668 72.0401 89.9905 71.9555 89.4693C71.7501 88.1934 70.6231 87.1649 69.2218 86.9283C67.8441 86.6948 66.6324 87.0984 65.8519 88.2414C65.4349 88.8522 65.1277 88.8321 64.543 88.5862C63.1245 87.9908 61.695 87.4325 60.3219 86.735C59.8219 86.4813 59.5915 86.1767 59.5962 85.5983C59.6228 81.605 59.6166 77.6102 59.6291 73.6154C59.6291 73.2829 59.6824 72.9488 59.7388 72.6194C59.9112 71.5708 60.5163 71.0465 61.6041 71.0233C62.4912 71.0032 63.38 71.0187 64.3455 71.0172ZM76.9587 58.5131C77.4917 57.2882 77.2362 56.1948 76.244 55.4354C75.3976 54.7859 74.3317 54.7549 73.4148 55.3473C72.5166 55.9288 72.1106 56.9464 72.3849 57.9455C72.6389 58.8688 73.2486 59.4859 74.1797 59.6885C75.2988 59.9298 76.2236 59.5416 76.9587 58.5131Z" fill="black"/>
<path d="M90.5673 81.1534C89.6425 82.4371 88.9512 83.8181 87.876 85.0307C87.5782 84.6131 87.6706 84.2713 87.6691 83.9542C87.6659 71.5353 87.6691 59.1147 87.6691 46.6942C87.6675 45.4415 87.6581 45.4415 86.365 45.443C85.3195 45.443 84.2756 45.4476 83.2301 45.443C82.8962 45.443 82.5028 45.4956 82.3868 45.0672C82.2708 44.6403 82.647 44.495 82.926 44.3202C87.8854 41.2147 92.8479 38.1138 97.8057 35.0052C99.5675 33.9009 101.32 32.7781 103.072 31.6599C103.524 31.3723 103.975 31.1094 104.525 31.3939C105.079 31.6785 104.996 32.2012 104.996 32.6853C104.999 39.0247 104.999 45.3626 104.999 51.702C104.999 51.8567 104.994 52.0113 104.996 52.166C105 52.5 104.903 52.8001 104.568 52.9207C104.18 53.0614 103.996 52.7475 103.834 52.4923C103.088 51.3123 102.359 50.1214 101.619 48.9383C101.444 48.6568 101.256 48.383 101.022 48.0304C100.831 48.3738 100.895 48.6537 100.897 48.9182C100.897 53.8146 100.892 58.7095 100.923 63.606C100.928 64.3282 100.709 64.5803 99.9594 64.6205C96.9185 64.7829 94.9153 68.2395 96.2931 70.9538C96.5721 71.5043 96.5063 71.86 96.1912 72.3457C94.3072 75.2532 92.4592 78.184 90.5673 81.1534ZM24.114 44.8739C24.6375 45.2311 24.6861 45.6317 24.3758 46.1003C24.3617 46.122 24.3554 46.1483 24.3381 46.1668C23.0246 47.6577 23.625 49.0032 24.6469 50.3302C24.8288 50.5668 24.9996 50.7509 25.3303 50.7679C25.694 50.7864 26.0514 50.8792 26.4166 50.9055C28.4527 51.0462 28.031 51.006 28.3194 52.7985C28.6032 54.5616 28.4339 56.3371 28.1799 58.1033C28.1016 58.6508 27.8539 58.9106 27.263 58.9121C26.6125 58.9137 25.9651 59.0173 25.3147 59.0544C25.0262 59.0699 24.8225 59.1719 24.6736 59.4179C24.327 59.9932 23.9716 60.5635 23.6077 61.1284C23.4322 61.4036 23.4604 61.6573 23.5936 61.9326C23.8319 62.4182 24.0058 62.9456 24.3052 63.391C24.7582 64.0576 24.5529 64.4999 23.9933 64.967C22.324 66.3651 20.4587 67.426 18.443 68.2488C17.979 68.439 17.6499 68.3478 17.3709 67.9364C17.1546 67.6147 16.8411 67.3502 16.6655 67.0131C16.1561 66.0387 15.4429 65.683 14.2861 65.765C13.435 65.8269 12.9852 66.1547 12.5212 66.7703C11.0729 68.6834 11.5745 68.7855 9.03677 67.6781C7.4709 66.9961 6.1229 65.98 4.87835 64.8216C4.45514 64.4272 4.38147 64.0761 4.72944 63.6307C4.76079 63.589 4.7749 63.5348 4.80782 63.4946C5.86584 62.211 5.86114 60.9706 4.74512 59.6931C4.42693 59.3312 4.15889 59.0668 3.66515 59.0745C3.06482 59.0853 2.46292 59.059 1.86416 59.09C1.4723 59.1132 1.29204 58.9632 1.2168 58.5997C0.751275 56.3324 0.618041 54.0636 1.12746 51.7824C1.20583 51.4267 1.37982 51.2427 1.7466 51.2086C1.9535 51.1885 2.15414 51.1158 2.3579 51.0849C4.53194 50.7694 4.52411 50.7679 5.43322 48.8223C5.579 48.5099 5.49122 48.281 5.34545 48.032C5.02099 47.4721 4.72161 46.8968 4.36109 46.3617C4.07112 45.9317 4.14949 45.6209 4.50216 45.2837C6.02339 43.8283 7.78615 42.6409 9.71391 41.773C10.1794 41.5611 10.518 41.6926 10.8221 42.0359C11.3017 42.5803 11.7923 43.1154 12.25 43.6753C12.5087 43.9908 12.783 44.1439 13.1968 44.0264C13.3714 43.9694 13.5567 43.9519 13.7391 43.9753C15.1341 44.2382 15.921 43.55 16.6138 42.4349C17.3991 41.1667 17.5433 41.1946 18.9822 41.7111C20.9007 42.3994 22.5419 43.5299 24.1124 44.8739M10.2139 51.1421C8.73739 52.9887 8.44115 54.9931 9.40983 57.1521C10.6481 59.9128 13.783 61.1995 16.758 60.1865C19.5089 59.2493 21.1233 56.3108 20.4274 53.4898C19.8772 51.2581 18.4399 49.8013 16.2266 49.2275C13.9147 48.6274 11.9005 49.2847 10.2139 51.1421ZM17.7126 90.9339C17.3693 91.4922 16.9947 91.5371 16.5276 91.1597C16.3081 90.9819 16.0009 90.8906 15.8175 90.6849C15.0667 89.8436 14.2595 90.1808 13.435 90.5133C13.3114 90.5535 13.2022 90.6283 13.1207 90.7285C13.0392 90.8286 12.9889 90.95 12.9758 91.0778C12.9052 91.5093 12.7297 91.933 12.7203 92.3614C12.6999 93.2662 12.2281 93.4316 11.4083 93.4069C9.59635 93.3497 9.59478 93.3899 9.26405 91.6021C9.05401 90.47 7.66213 89.8575 6.63388 90.4468C6.24986 90.6664 5.84389 90.8612 5.49906 91.1319C5.06017 91.4768 4.76393 91.4366 4.38304 91.0205C2.99899 89.508 2.94883 89.491 4.231 87.8903C4.74355 87.2515 4.31094 86.7968 4.173 86.2617C4.03977 85.7421 3.60872 85.8256 3.22626 85.7978C1.28891 85.6632 1.28891 85.6617 1.29831 83.7254C1.30458 82.5994 1.30458 82.5994 2.45822 82.4046C2.63847 82.3736 2.81873 82.3474 2.99899 82.3211C3.39398 82.2669 3.92691 82.4293 4.07112 81.9097C4.2451 81.2833 4.64794 80.6894 4.01312 79.9826C2.85008 78.6882 2.90337 78.6387 4.01312 77.3287C4.19808 77.1122 4.39558 76.9065 4.58524 76.6946C4.8376 76.4101 5.11346 76.3992 5.41598 76.6142C5.54138 76.7055 5.69969 76.7642 5.80157 76.874C6.71382 77.8669 7.67153 77.5112 8.66216 77.0132C9.05872 76.8153 9.0979 76.4781 9.18098 76.127C9.61516 74.3145 9.61986 74.3408 11.5133 74.166C12.2657 74.0964 12.6623 74.3176 12.692 75.0847C12.6952 75.2115 12.7736 75.3367 12.7704 75.462C12.7438 76.5353 13.283 77.1385 14.3049 77.4602C14.6937 77.5839 14.9507 77.6025 15.305 77.3906C17.1546 76.2894 17.1436 76.3142 18.5653 77.9365C18.9665 78.3943 19.0465 78.7469 18.5794 79.1722C18.4069 79.3269 18.2753 79.5249 18.1248 79.7027C17.4398 80.4992 17.4038 81.1055 17.9602 81.9932C18.1248 82.2561 18.3521 82.2932 18.6217 82.3133C18.9587 82.3396 19.2941 82.3984 19.6311 82.434C19.9399 82.4664 20.2503 82.4881 20.6609 82.5221V85.2209C20.6578 85.5024 20.501 85.6338 20.222 85.6586C19.8051 85.6957 19.3913 85.7467 18.9775 85.7931C18.5433 85.8426 18.0778 85.8039 17.8662 86.3313C17.6342 86.9113 17.4586 87.3907 17.9759 88.0063C19.1013 89.341 19.0496 89.3827 17.9038 90.7174L17.7126 90.9339ZM10.8613 80.5564C9.0211 80.7915 7.80163 82.1989 7.93329 83.9357C8.06339 85.6555 9.46155 86.8866 11.1889 86.803C12.7736 86.7257 14.1121 85.3369 14.1372 83.7439C14.1639 82.0303 12.7939 80.6415 10.8613 80.558V80.5564ZM89.8807 23.8064C90.6801 23.5745 91.1848 23.9843 91.6457 24.456C91.978 24.7963 91.724 25.1349 91.5547 25.4458C91.2068 26.0892 90.9387 26.6784 91.2961 27.4687C91.5469 28.0239 91.8181 28.2807 92.4059 28.3441C93.4905 28.4601 93.6912 28.6642 93.7084 29.5056C93.7304 30.5727 93.4796 30.865 92.3949 31.0367C91.1676 31.2346 90.7695 31.9754 91.2679 33.0921C91.4513 33.5019 91.782 33.8963 91.5814 34.3989C91.2554 35.2186 90.3823 35.5156 89.6002 35.0686C89.3964 34.9526 89.2083 34.8119 89.0092 34.6897C88.4042 34.317 87.6816 34.5551 87.4418 35.2001C86.9574 36.5146 86.9574 36.4837 85.6549 36.4914C84.9809 36.4961 84.6423 36.2394 84.5154 35.6022C84.4307 35.1815 84.3398 34.784 83.8179 34.5799C83.4009 34.4159 83.1517 34.4005 82.7849 34.6928C81.8868 35.4042 81.3946 35.3578 80.6642 34.6727C80.2049 34.2427 80.0576 33.8159 80.4479 33.2514C80.8131 32.7286 81.0262 32.192 80.6046 31.5455C80.3366 31.1357 80.0874 30.9037 79.567 30.8959C78.6218 30.882 78.2864 30.5773 78.2472 29.8365C78.1845 28.5993 78.3616 28.358 79.4572 28.1956C80.6234 28.0209 81.1908 26.9058 80.6642 25.8294C80.0685 24.6138 80.2613 24.0771 81.3836 23.6394C81.9886 23.4028 82.3868 23.7167 82.7912 24.0446C83.0984 24.2936 83.3555 24.5395 83.8257 24.3323C84.2912 24.1266 84.5013 23.8467 84.531 23.3425C84.5624 22.8166 84.6846 22.3279 85.4088 22.2877C86.901 22.2073 87.0969 22.2367 87.26 23.1971C87.3885 23.9518 87.7819 24.3261 88.4779 24.4777C89.0907 24.6107 89.3306 23.9549 89.8807 23.8049M84.8148 27.6017C83.7708 28.4261 83.4793 29.4251 83.9871 30.4366C84.4088 31.2779 85.5311 31.8564 86.39 31.6661C87.3446 31.4543 87.9653 30.8959 88.1769 29.9386C88.365 29.1004 88.0546 28.4044 87.4386 27.8662C86.691 27.2166 85.8367 27.0357 84.8148 27.6017ZM11.9381 31.2563C11.0635 30.8464 11.2547 30.1118 11.308 29.4746C11.3597 28.8622 11.9506 28.6952 12.4193 28.6952C13.2548 28.6936 13.4726 28.1121 13.8394 27.5785C14.2046 27.0465 14.5071 26.615 14.1639 25.9206C13.8896 25.37 13.772 24.7282 14.5307 24.3184C15.4429 23.8265 15.8504 23.8544 16.5354 24.5395C17.316 25.3205 18.9963 25.4551 19.8897 24.7839C20.454 24.3601 20.9619 24.0183 21.7048 24.5055C22.5857 25.0839 22.6986 25.1798 22.3663 26.1882C22.1782 26.7604 22.2299 27.1764 22.5481 27.7378C22.9964 28.5266 23.4071 29.122 24.4244 29.1529C24.9651 29.17 25.0827 29.6525 25.0576 30.1381C25.0278 30.7134 25.2112 31.5409 24.4024 31.5718C23.0042 31.6275 22.7723 32.8292 22.0732 33.5669C21.7362 33.9226 22.0732 34.3603 22.1406 34.7454C22.3302 35.8496 22.1531 36.1496 21.0967 36.5456C20.5512 36.7497 20.1938 36.5811 19.8788 36.1728C19.4556 35.6238 19.0041 35.2202 18.1906 35.3717C17.5621 35.4893 16.885 35.1567 16.294 35.7444C15.899 36.1388 15.3426 36.3693 14.7172 36.0584C13.8911 35.6486 13.6294 35.1598 13.9899 34.3123C14.2407 33.7246 14.2767 33.2498 13.7751 32.806C13.7354 32.771 13.7071 32.7253 13.6936 32.6745C13.4977 31.7698 12.8457 31.4094 11.9381 31.2563ZM19.7408 31.2903C20.3239 30.3051 20.1923 29.4932 19.3333 28.7756C18.559 28.1291 17.7847 28.1291 17.0182 28.7756C16.2909 29.3911 16.1044 30.3423 16.5574 31.1264C17.2063 32.2507 18.57 32.3621 19.7408 31.2903ZM49.9831 68.8396C49.3718 67.6379 48.7636 66.5769 47.1538 66.6589C46.6695 66.6821 46.2134 66.2398 45.9547 65.7557C45.693 65.2654 45.8732 64.967 46.3999 64.8556C46.5754 64.82 46.7635 64.8355 46.9454 64.8355C51.0411 64.834 55.1384 64.8309 59.2341 64.8355C59.6604 64.8371 60.2075 64.7149 60.347 65.2902C60.4849 65.8531 60.0711 66.1949 59.6322 66.4563C59.1322 66.7548 58.5836 66.9435 57.9958 66.8971C57.4065 66.8507 57.082 67.0703 56.9002 67.6302C56.5867 68.5999 55.9472 69.3453 55.0631 69.8572C53.3437 70.8548 51.4282 70.4759 49.9846 68.8396H49.9831ZM42.5612 74.3191C46.2886 74.3067 50.0175 74.2789 53.7481 74.2882C54.6666 74.2882 55.2638 74.7924 55.4863 75.6754C55.7089 76.557 55.8876 77.5808 55.4738 78.3154C55.1446 78.9 54.1242 78.5165 53.4158 78.5273C51.4345 78.5552 49.4564 78.4051 47.4814 78.2582C47.1953 78.2443 46.921 78.1415 46.6977 77.9644C45.4343 76.9684 44.1631 75.9817 42.8951 74.9919C42.7101 74.8465 42.5189 74.7057 42.5612 74.3717C42.5675 74.3129 42.5628 74.3176 42.5612 74.3191ZM58.3908 58.7049C54.5819 58.7049 50.8514 58.708 47.1209 58.7049C46.809 58.7033 46.4845 58.7049 46.1899 58.6229C45.6695 58.4775 45.3372 58.1388 45.3403 57.562C45.3419 56.9743 45.7039 56.6742 46.2337 56.5536C46.4845 56.4964 46.751 56.4933 47.0112 56.4933C51.1069 56.4933 55.2042 56.4948 59.2999 56.5041C59.6119 56.5041 59.9332 56.5134 60.2294 56.5938C60.7514 56.7361 61.1103 57.0733 61.0915 57.6455C61.0727 58.2502 60.6683 58.5951 60.1087 58.6724C59.5711 58.7482 59.0162 58.7002 58.3908 58.7049ZM59.4488 62.8853C55.4064 62.8745 51.4376 62.8698 47.4689 62.8574C47.0251 62.8606 46.5817 62.8296 46.1428 62.7646C45.6444 62.6873 45.3826 62.344 45.3434 61.8522C45.2995 61.3232 45.5206 60.9335 46.0425 60.785C46.3444 60.7083 46.6556 60.6729 46.9673 60.6799C51.1461 60.6721 55.3233 60.6737 59.5021 60.6675C60.0743 60.6675 60.615 60.734 60.9175 61.2908C61.3674 62.1182 60.7138 62.859 59.4488 62.8837V62.8853ZM74.6859 21.1401C73.526 21.6428 72.8207 21.4804 72.4382 20.6607C72.0605 19.8488 72.3896 19.0878 73.3568 18.5821C75.523 17.45 77.6907 16.3226 79.8616 15.1998C80.8413 14.694 81.6924 14.858 82.1093 15.6142C82.5482 16.4107 82.2645 17.2814 81.2786 17.7965C79.1155 18.9301 76.9211 20.0112 74.6859 21.1401ZM27.2928 18.8729C26.5043 18.4599 25.7567 18.0934 25.0325 17.6866C24.172 17.201 23.8616 16.3148 24.2645 15.6065C24.6908 14.8549 25.5466 14.6291 26.4385 15.0899C28.6564 16.2344 30.8665 17.3928 33.0688 18.5666C33.9779 19.0523 34.2679 19.8596 33.8619 20.6236C33.4544 21.3922 32.5547 21.601 31.6362 21.1262C30.2035 20.3885 28.7756 19.6415 27.2943 18.8729H27.2928ZM38.489 11.3643C37.4514 9.9445 36.4435 8.57114 35.4482 7.19005C34.7945 6.28376 34.8635 5.4981 35.6206 4.96298C36.3965 4.41704 37.257 4.61501 37.8918 5.50583C39.1355 7.24946 40.3712 8.99866 41.5988 10.7534C41.9436 11.2467 42.0832 11.7803 41.6835 12.3278C41.2994 12.8551 40.8026 13.0949 40.1317 12.9928C39.7665 12.9356 39.5078 12.7392 39.2978 12.4731C39.0251 12.1283 38.7806 11.7648 38.489 11.3643ZM66.971 7.7762C67.6027 6.92095 68.1779 6.09198 68.8096 5.30787C69.4052 4.56706 70.1795 4.47272 70.8535 4.98773C71.4962 5.4749 71.5887 6.1987 71.0463 6.96734C69.7658 8.78347 68.4706 10.5894 67.1607 12.385C66.6653 13.0655 65.7797 13.2356 65.1559 12.8258C64.9991 12.7207 64.8649 12.586 64.761 12.4297C64.657 12.2733 64.5854 12.0982 64.5501 11.9144C64.5149 11.7307 64.5167 11.5418 64.5556 11.3588C64.5945 11.1757 64.6696 11.0021 64.7766 10.8477C65.4568 9.81459 66.2139 8.82787 66.971 7.7762ZM35.166 55.1447C34.9497 53.9693 34.2287 53.3429 33.1675 53.032C32.9434 52.9655 32.7099 52.9083 32.5061 52.8001C31.9732 52.5139 31.9575 51.9464 32.4747 51.6401C32.6738 51.5241 32.9026 51.4406 33.1284 51.3865C34.2757 51.1112 34.8839 50.3534 35.1394 49.26C35.2381 48.8269 35.34 48.3552 35.9043 48.3243C36.478 48.2933 36.619 48.748 36.735 49.1842C37.0423 50.3487 37.7225 51.1375 38.9498 51.4329C39.3417 51.5272 39.8041 51.6463 39.7821 52.1984C39.7602 52.7614 39.2947 52.8913 38.8668 52.9949C37.7147 53.2733 36.9937 53.9414 36.7538 55.1076C36.6676 55.5344 36.583 55.9953 35.9748 56.0015C35.4262 56.0061 35.2993 55.6117 35.166 55.1447ZM51.7605 8.5201C51.7339 6.18787 51.7072 3.92369 51.6884 1.66105C51.679 0.5769 52.1775 -0.00461217 53.0929 2.75497e-05C54.0177 0.00466727 54.5255 0.572259 54.5286 1.63476C54.5333 3.84636 54.5349 6.05951 54.5271 8.27265C54.5224 9.1774 54.0365 9.76046 53.2527 9.85016C52.516 9.93522 52.0176 9.513 51.7605 8.5201Z" fill="black"/>
<path d="M101.577 66.744C103.058 67.5374 103.638 69.002 103.019 70.2655C102.383 71.5677 100.709 72.1616 99.3402 71.5724C98.0534 71.0187 97.406 69.5123 97.9013 68.224C98.4468 66.8074 99.892 66.2058 101.579 66.744H101.577ZM3.12595 29.5473C3.836 29.1421 4.15733 28.5482 4.28586 27.8306C4.36109 27.4053 4.49276 27.0001 5.01942 26.9723C5.55078 26.946 5.63699 27.3806 5.71693 27.7533C5.95988 28.8978 6.58686 29.6556 7.79693 29.8706C8.18408 29.9386 8.51168 30.1134 8.53049 30.5464C8.54773 31.0011 8.18252 31.1604 7.82044 31.2455C6.63859 31.5238 5.88308 32.1858 5.67774 33.4076C5.61818 33.7617 5.41442 34.0185 4.9865 34.0015C4.55389 33.9844 4.37363 33.686 4.33131 33.3503C4.1824 32.1641 3.47392 31.5285 2.35007 31.2486C1.95194 31.1496 1.59142 30.9779 1.59769 30.4954C1.6024 30.0314 1.98955 29.9417 2.33753 29.8257C2.58518 29.7453 2.8297 29.6587 3.12595 29.5473ZM33.7208 69.0901C35.0986 68.7251 36.0689 69.0468 36.7084 70.0351C37.3699 71.0574 37.1927 72.2683 36.2695 73.0122C35.2742 73.8165 33.9403 73.8226 33.0594 73.0262C32.1346 72.191 31.9873 70.861 32.7146 69.8928C32.9719 69.5415 33.3191 69.264 33.7208 69.0886V69.0901ZM100.041 24.6107C99.4014 24.8921 99.1569 25.387 99.0471 25.9686C98.9719 26.366 98.7775 26.6537 98.3402 26.6537C97.9327 26.6537 97.7509 26.3707 97.6882 26.0088C97.5393 25.1427 96.9609 24.6849 96.1677 24.4173C95.8198 24.2998 95.4467 24.173 95.4436 23.7214C95.4389 23.2218 95.8574 23.0873 96.2304 23.0053C97.0408 22.829 97.4922 22.3403 97.6819 21.5716C97.7806 21.1757 97.9436 20.803 98.428 20.8169C98.8731 20.8277 99.0095 21.1834 99.0863 21.5577C99.2509 22.3434 99.7619 22.8135 100.516 23.0393C100.905 23.1569 101.274 23.2435 101.254 23.7678C101.235 24.2905 100.84 24.3555 100.461 24.4622C100.336 24.4962 100.215 24.5457 100.039 24.6122L100.041 24.6107ZM75.4665 45.2249C75.3098 44.5754 74.9963 44.1563 74.3646 43.9753C74.0135 43.8732 73.6749 43.6768 73.6749 43.236C73.6734 42.8046 74.0386 42.7025 74.3552 42.5989C74.9226 42.4133 75.291 42.0684 75.4399 41.4869C75.5183 41.176 75.6625 40.8837 76.0543 40.8992C76.3992 40.9131 76.5512 41.1776 76.6092 41.4637C76.7362 42.0823 77.1077 42.4442 77.7048 42.6499C78.0136 42.7551 78.3538 42.9004 78.3349 43.3366C78.3193 43.7279 78.0199 43.8408 77.7205 43.9428C77.1406 44.1439 76.78 44.5073 76.5951 45.1151C76.3835 45.8065 76.0308 45.8328 75.4665 45.2249ZM56.2434 30.0546C57.8297 30.1582 58.4081 31.3259 57.5789 32.5832C56.8845 33.6349 55.8296 33.8762 54.6697 33.9056C54.3531 33.9133 54.2183 33.7293 54.1681 33.4323C53.9361 32.1069 54.8735 30.5279 56.2434 30.0546ZM50.4893 30.0855C51.8232 30.5974 52.6117 32.3188 52.1634 33.6102C52.1163 33.7416 52.0536 33.8267 51.9173 33.8762C50.864 34.2551 48.8811 32.9467 48.7777 31.8038C48.6789 30.7057 49.2558 30.1025 50.4893 30.0871V30.0855ZM51.8326 80.7652C52.8985 80.7652 53.8907 80.7807 54.8813 80.7652C55.3719 80.7575 55.5976 80.94 55.5867 81.4457C55.5663 82.3334 55.582 83.2227 55.582 84.1259C54.5819 83.9403 51.1179 81.6823 50.5317 80.858C50.9408 80.6817 51.3577 80.7961 51.8326 80.7652ZM94.594 15.6869C94.1097 15.8601 94.0109 16.2499 93.8777 16.6102C93.7743 16.8948 93.6191 17.133 93.2837 17.1438C92.9419 17.1546 92.7507 16.9041 92.6723 16.6334C92.4999 16.0334 92.1645 15.6467 91.5281 15.5044C91.3978 15.4771 91.2813 15.4057 91.1986 15.3027C91.1159 15.1996 91.0722 15.0713 91.0751 14.9399C91.0641 14.5858 91.2961 14.4218 91.5845 14.3414C92.1958 14.1713 92.5673 13.8047 92.7225 13.1923C92.7852 12.9402 92.9325 12.7067 93.2507 12.7005C93.6128 12.6943 93.7507 12.9634 93.8213 13.2418C93.9514 13.746 94.1677 14.1388 94.7288 14.2935C95.0737 14.3894 95.4514 14.5347 95.4185 15.0064C95.384 15.4673 94.9859 15.5354 94.594 15.6869ZM67.7516 91.8928C66.7766 91.1675 66.5807 90.306 67.156 89.474C67.6889 88.6991 68.7594 88.4532 69.5682 88.9172C70.3159 89.3487 70.5855 90.2442 70.2125 91.0639C69.7924 91.9887 68.877 92.3166 67.7516 91.8928ZM83.81 92.5254C83.2959 91.7753 83.2269 91.0345 83.6862 90.3168C84.031 89.7771 84.6047 89.576 85.2427 89.641C86.0201 89.7183 86.622 90.255 86.7772 90.9664C86.9292 91.6655 86.5499 92.4728 85.8838 92.8672C85.1502 93.3002 84.6188 93.2229 83.81 92.5254ZM3.97237 70.731C3.36734 70.9677 2.88456 71.2321 2.77171 71.891C2.72468 72.1601 2.5507 72.3549 2.23564 72.3673C2.10271 72.3804 1.96974 72.3428 1.86396 72.2623C1.75819 72.1818 1.6876 72.0645 1.66666 71.9343C1.54127 71.3358 1.17292 70.9986 0.602369 70.8238C0.345308 70.7434 0.105489 70.6011 0.0898144 70.3057C0.07414 69.9887 0.274773 69.7567 0.560047 69.6577C1.1447 69.4567 1.54754 69.1272 1.66823 68.4885C1.71525 68.2271 1.90648 68.0292 2.22781 68.0508C2.53659 68.0725 2.70431 68.2704 2.76701 68.5349C2.90337 69.1087 3.21686 69.4752 3.80779 69.6655C4.40655 69.8603 4.51314 70.2392 3.97237 70.731ZM13.2501 18.1584C13.3222 17.9867 13.3629 17.8645 13.4131 17.7454C13.5291 17.4748 13.6764 17.2196 14.0275 17.2443C14.3269 17.266 14.4852 17.4825 14.5573 17.7439C14.7062 18.279 14.9899 18.6594 15.5699 18.8002C15.841 18.8667 15.9931 19.0894 16.0025 19.3817C16.0103 19.6786 15.8614 19.9029 15.5824 19.9617C15.0291 20.0777 14.7329 20.4024 14.6043 20.9298C14.5291 21.2345 14.3065 21.4278 13.9805 21.417C13.6999 21.4077 13.4585 21.253 13.388 20.9839C13.2422 20.4272 12.9303 20.0869 12.3441 19.974C12.212 19.9544 12.0914 19.8887 12.0042 19.7888C11.9171 19.6889 11.8692 19.5614 11.8691 19.4296C11.8585 19.2859 11.8988 19.143 11.9832 19.0254C12.0675 18.9078 12.1907 18.8227 12.3315 18.7847C12.6842 18.6703 13.0275 18.5558 13.2501 18.1584ZM27.158 39.7207C26.2191 39.1376 26.1987 38.8824 27.0373 38.2638C27.2849 38.0813 27.3978 37.8354 27.5201 37.5802C27.6204 37.3668 27.7301 37.1565 28.0232 37.1735C28.2661 37.1859 28.4135 37.3374 28.4778 37.5416C28.6188 37.9901 28.9166 38.2514 29.3336 38.4741C29.7944 38.7216 29.796 39.1098 29.3132 39.3464C28.9856 39.5057 28.7552 39.6867 28.6235 40.0238C28.5107 40.3037 28.4041 40.6316 28.0028 40.6223C27.6125 40.6146 27.5169 40.2867 27.3649 40.0223C27.3131 39.9341 27.2552 39.8491 27.158 39.7222V39.7207ZM1.45976 43.0922C0.781057 42.902 0.538103 42.2865 0.075708 41.9075C-0.098278 41.7653 0.0584668 41.5054 0.235588 41.3848C0.513025 41.1946 0.799865 41.0245 0.970716 40.7198C1.0052 40.6579 1.08044 40.5945 1.14784 40.5821C1.89394 40.4491 1.92215 41.2936 2.43314 41.524C2.68393 41.6353 2.57108 42.0189 2.33909 42.1736C1.97702 42.4102 1.84848 42.8293 1.46133 43.0922H1.45976Z" fill="black"/>
</svg>
