<svg width="150" height="175" viewBox="0 0 150 175" fill="none" xmlns="http://www.w3.org/2000/svg">
<path d="M60.8107 106.992C60.3046 107.339 59.971 106.981 59.6351 106.696C58.5043 105.727 57.3982 104.729 56.2494 103.783C55.8509 103.456 55.8218 103.086 55.7792 102.621C55.5642 100.187 54.3842 98.3389 52.1741 97.2367C50.0648 96.1902 47.9532 96.3015 46.0208 97.6464C44.0503 99.0136 43.2039 101.027 43.4949 103.353C43.8264 106.003 45.4587 107.722 48.0293 108.444C50.2439 109.065 52.2368 108.519 53.9095 106.941C54.3125 106.56 54.6775 106.313 55.141 106.776C57.0959 108.724 59.3194 110.361 61.413 112.149C61.4892 112.216 61.5161 112.338 61.5631 112.432C61.4287 112.944 60.9652 113.086 60.6002 113.318C58.6163 114.569 56.6212 115.803 54.6395 117.059C54.4628 117.187 54.2568 117.27 54.04 117.301C53.8232 117.331 53.6022 117.307 53.3967 117.232C51.1329 116.531 49.0079 117.807 48.4727 120.131C48.0383 122.017 49.5945 124.095 51.7195 124.458C53.6564 124.792 55.8352 122.948 55.8442 120.839C55.8486 119.998 56.1442 119.539 56.8339 119.169C59.1649 117.918 61.4825 116.642 63.8045 115.375C64.268 115.124 64.6577 114.932 65.2085 115.375C69.3555 118.733 73.825 121.63 78.4131 124.342C79.1968 124.81 79.4745 125.322 79.4655 126.204C79.4297 130.434 79.4767 134.665 79.4319 138.896C79.423 139.866 79.7185 140.232 80.7083 140.174C81.8234 140.107 82.9475 140.138 84.0671 140.185C84.8911 140.22 85.1799 139.895 85.171 139.078C85.1396 135.923 85.1531 132.77 85.1598 129.615C85.1598 129.181 85.0658 128.722 85.3233 128.343C85.5181 128.194 85.7039 128.216 85.8741 128.299C88.0461 129.381 90.2965 130.274 92.5469 131.171C93.0328 131.365 93.315 131.683 93.5523 132.14C95.3818 135.645 98.96 136.204 101.741 133.425C102.088 133.075 102.402 132.75 102.977 132.821C107.097 133.333 111.238 133.347 115.378 133.269C116.383 133.251 117.124 133.447 117.492 134.458C117.563 134.658 117.707 134.899 117.884 134.988C119.567 135.834 119.404 137.368 119.305 138.833C119.236 139.858 119.588 140.241 120.627 140.174C121.701 140.102 122.794 140.096 123.871 140.178C124.984 140.263 125.349 139.806 125.23 138.764C125.174 138.288 125.239 137.8 125.219 137.317C125.161 135.936 125.253 134.636 126.081 133.398C126.86 132.231 126.762 130.882 125.985 129.715C125.51 129.002 125.589 128.479 126.014 127.809C129.156 122.85 132.508 118.025 135.499 112.97C136.803 110.766 138.262 108.651 139.631 106.484C140.087 105.758 140.618 105.402 141.482 105.823C141.744 105.947 142.053 105.994 142.347 106.037C144.158 106.297 144.161 106.295 144.161 108.163C144.161 118.33 144.154 128.499 144.154 138.668C144.154 140.138 144.161 140.131 145.627 140.169C145.999 140.178 146.38 140.192 146.736 140.278C147.611 140.488 148.249 140.98 148.236 141.953C148.222 142.959 147.703 143.641 146.677 143.837C146.207 143.926 145.715 143.957 145.233 143.957C98.136 143.964 51.0411 143.964 3.94391 143.964C3.19825 143.964 2.44364 144.037 1.72038 143.808C0.858286 143.532 0.296246 142.973 0.296246 142.033C0.296246 141.076 0.887397 140.528 1.7674 140.325C2.30481 140.203 2.87581 140.176 3.43337 140.176C13.9934 140.16 24.5558 140.154 35.1181 140.151C36.5803 140.151 36.596 140.156 36.596 138.662C36.596 124.3 36.5937 109.938 36.6027 95.5756C36.6027 94.6894 36.6609 93.7943 36.7863 92.917C36.9789 91.5543 37.9081 90.6881 39.2897 90.6814C45.5214 90.6547 51.7554 90.6502 57.9871 90.6859C59.6732 90.6948 60.6517 91.7702 60.6607 93.4625C60.6741 97.0608 60.6562 100.661 60.6719 104.262C60.6741 105.112 60.757 105.961 60.804 106.905C60.804 106.998 60.8107 106.994 60.8107 106.994V106.992ZM73.3055 78.5238C70.8468 78.526 68.4957 78.5037 66.1445 78.5416C65.2779 78.5549 64.9532 78.2432 64.9779 77.3703C65.0271 75.5534 64.9084 73.7297 65.0226 71.9172C65.1615 69.6861 64.2255 68.0472 62.5103 66.7625C60.2979 65.1058 58.1752 63.3556 56.507 61.129C52.5368 55.8362 50.6873 49.9355 51.2941 43.3089C52.136 34.1238 56.7757 27.4171 64.9196 23.2443C77.1569 16.974 91.9535 21.9239 98.1113 34.155C102.899 43.6651 100.989 55.7204 93.4807 63.222C92.2446 64.4556 90.8675 65.5422 89.4501 66.5732C87.6923 67.8535 86.6444 69.4523 86.8101 71.7613C86.9422 73.6073 86.7899 75.471 86.8414 77.3258C86.8683 78.2677 86.4854 78.5549 85.5875 78.5393C83.3127 78.4905 81.0372 78.4905 78.7624 78.5393C77.6831 78.5683 77.336 78.1808 77.3405 77.1232C77.3741 70.2205 77.3584 63.32 77.3584 56.4195C77.3584 55.1949 77.383 53.9702 77.345 52.7455C77.3226 51.9617 77.6092 51.5788 78.4288 51.5609C79.5873 51.5442 80.7314 51.3021 81.7965 50.8484C85.1105 49.4233 86.5817 45.6313 84.8799 42.8591C83.102 39.96 79.2147 39.5836 76.812 42.0798C76.5836 42.318 76.3709 42.5718 76.1739 42.7945C75.7619 42.7812 75.6432 42.4716 75.4551 42.2557C73.5674 40.078 70.6408 39.8264 68.4822 41.6545C66.4445 43.3801 66.1982 46.5754 67.9135 48.6685C69.2301 50.2761 70.9408 51.1423 72.9629 51.483C73.4689 51.5676 73.9705 51.6812 74.5012 51.7858C74.5213 52.0864 74.546 52.3046 74.546 52.5206C74.546 60.7593 74.5325 68.9958 74.5482 77.2323C74.5505 78.0628 74.425 78.6418 73.3055 78.5238ZM56.6391 39.4968C55.1388 44.4267 55.3515 49.2229 57.6422 53.9747C58.2871 53.6184 58.7596 53.3156 59.2634 53.0884C59.9867 52.7633 60.1054 52.3536 59.8165 51.5943C56.7891 43.6763 60.1591 34.5447 67.6044 30.412C70.0071 29.0804 72.5486 28.163 75.3252 28.0072C76.3105 27.9515 76.7135 27.4104 76.6486 26.4685C76.5837 25.5066 75.9813 25.2439 75.1192 25.2528C73.589 25.2609 72.0682 25.4912 70.605 25.9364C63.7015 28.0695 59.1515 32.6253 56.6391 39.4968Z" fill="black"/>
<path d="M91.9222 102.247C94.6854 102.278 97.2963 102.714 99.9251 103.006C100.566 103.077 100.964 103.34 101.233 103.997C101.815 105.418 103.443 106.342 104.809 106.175C106.564 105.956 107.877 104.823 108.197 103.24C108.521 101.637 107.751 100.065 106.231 99.2274C104.842 98.4614 103.163 98.6284 102.008 99.7952C101.437 100.374 100.951 100.414 100.23 100.176C98.9546 99.7615 97.6603 99.4078 96.3513 99.116C95.6057 98.9468 95.2765 98.6039 95.2765 97.8335C95.29 90.2628 95.2743 82.6943 95.2989 75.1258C95.3056 73.4358 96.3379 72.4316 98.0554 72.4249C104.213 72.4026 110.369 72.4026 116.524 72.436C118.432 72.4472 119.296 73.467 119.301 75.5667C119.31 87.4772 119.312 99.3877 119.314 111.298C119.317 115.974 119.299 120.648 119.328 125.322C119.332 126.123 119.182 126.729 118.454 127.203C117.695 127.7 117.147 128.458 116.916 129.332C116.793 129.777 116.625 130.018 116.101 130.051C112.035 130.314 107.977 130.14 103.92 129.864C103.219 129.817 102.914 129.564 102.794 128.813C102.5 126.976 100.89 125.495 98.8884 125.155C96.9201 124.819 95.1892 125.4 94.0741 127.045C93.4784 127.925 93.0396 127.896 92.2043 127.542C90.1778 126.685 88.1357 125.881 86.1742 124.876C85.4599 124.511 85.1307 124.073 85.1374 123.24C85.1755 117.491 85.1665 111.739 85.1844 105.988C85.1844 105.509 85.2606 105.028 85.3412 104.554C85.5875 103.044 86.4518 102.289 88.0058 102.256C89.2732 102.227 90.5428 102.249 91.9222 102.247ZM109.941 84.2441C110.702 82.4806 110.337 80.9063 108.92 79.813C107.711 78.8778 106.188 78.8333 104.878 79.6861C103.595 80.5233 103.015 81.9885 103.407 83.4269C103.77 84.7562 104.641 85.6447 105.971 85.9364C107.57 86.2837 108.891 85.7248 109.941 84.2441Z" fill="black"/>
<path d="M129.382 116.84C128.061 118.689 127.073 120.677 125.537 122.423C125.112 121.821 125.244 121.329 125.242 120.873C125.237 102.993 125.242 85.1103 125.242 67.2278C125.239 65.4242 125.226 65.4242 123.379 65.4264C121.885 65.4264 120.394 65.4331 118.9 65.4264C118.423 65.4264 117.861 65.5022 117.695 64.8854C117.53 64.2708 118.067 64.0615 118.466 63.8099C125.551 59.3387 132.64 54.8742 139.722 50.3986C142.239 48.8088 144.743 47.1922 147.246 45.5823C147.891 45.1682 148.536 44.7896 149.322 45.1993C150.112 45.609 149.994 46.3617 149.994 47.0586C149.998 56.1857 149.998 65.3107 149.998 74.4378C149.998 74.6605 149.991 74.8831 149.994 75.1058C150 75.5868 149.862 76.0187 149.382 76.1924C148.829 76.3951 148.565 75.943 148.334 75.5756C147.269 73.8767 146.227 72.1621 145.17 70.4587C144.92 70.0535 144.651 69.6594 144.317 69.1517C144.044 69.646 144.136 70.049 144.138 70.4298C144.138 77.4794 144.131 84.5269 144.176 91.5765C144.183 92.6164 143.869 92.9793 142.799 93.0372C138.455 93.271 135.593 98.2477 137.562 102.155C137.96 102.948 137.866 103.46 137.416 104.159C134.725 108.346 132.085 112.565 129.382 116.84ZM34.4486 64.607C35.1965 65.1214 35.2659 65.6981 34.8225 66.3728C34.8024 66.404 34.7934 66.4418 34.7688 66.4685C32.8923 68.6151 33.7499 70.5523 35.2099 72.4627C35.4696 72.8034 35.7137 73.0684 36.1862 73.0929C36.7057 73.1196 37.2162 73.2532 37.738 73.2911C40.6467 73.4937 40.0443 73.4358 40.4564 76.0165C40.8616 78.5549 40.6198 81.1112 40.2571 83.654C40.1451 84.4423 39.7913 84.8163 38.9471 84.8186C38.0179 84.8208 37.0931 84.97 36.1638 85.0234C35.7518 85.0457 35.4607 85.1926 35.248 85.5467C34.7528 86.3751 34.2452 87.1961 33.7253 88.0094C33.4745 88.4057 33.5148 88.7709 33.7052 89.1673C34.0455 89.8664 34.2941 90.6257 34.7217 91.267C35.3689 92.2267 35.0755 92.8635 34.2761 93.536C31.8914 95.5489 29.2267 97.0764 26.3471 98.261C25.6843 98.5349 25.2141 98.4035 24.8155 97.8112C24.5065 97.3481 24.0587 96.9673 23.8079 96.4819C23.0801 95.0791 22.0613 94.567 20.4088 94.685C19.1929 94.774 18.5502 95.2461 17.8874 96.1323C15.8184 98.8867 16.5349 99.0337 12.9097 97.4394C10.6727 96.4574 8.747 94.9945 6.96907 93.3267C6.36449 92.7589 6.25924 92.2534 6.75635 91.6122C6.80113 91.552 6.82128 91.4741 6.86831 91.4162C8.37977 89.5681 8.37305 87.7823 6.77874 85.943C6.32418 85.422 5.94128 85.0412 5.23593 85.0524C4.37831 85.068 3.51846 85.0301 2.66308 85.0746C2.10328 85.108 1.84577 84.892 1.73829 84.3688C1.07325 81.1045 0.882916 77.8379 1.61066 74.5536C1.72262 74.0415 1.97117 73.7765 2.49514 73.7275C2.79072 73.6985 3.07734 73.5939 3.36843 73.5494C6.47421 73.0951 6.46301 73.0929 7.76175 70.2917C7.96999 69.8419 7.8446 69.5124 7.63635 69.1539C7.17284 68.3479 6.74515 67.5195 6.23013 66.7491C5.81588 66.1301 5.92784 65.6825 6.43166 65.1971C8.60485 63.1017 11.1231 61.3921 13.877 60.1426C14.5421 59.8375 15.0257 60.0268 15.4601 60.5211C16.1453 61.3049 16.8462 62.0753 17.5 62.8814C17.8695 63.3356 18.2614 63.556 18.8525 63.3868C19.1019 63.3048 19.3668 63.2796 19.6273 63.3133C21.6202 63.6919 22.7443 62.701 23.734 61.0956C24.8558 59.2697 25.0618 59.3098 27.1174 60.0535C29.8582 61.0444 32.2026 62.6721 34.4463 64.607M14.5913 73.6317C12.482 76.2904 12.0588 79.1762 13.4426 82.2846C15.2116 86.2592 19.69 88.1118 23.94 86.6534C27.8698 85.304 30.1762 81.0733 29.182 77.0118C28.396 73.7987 26.3427 71.7012 23.1809 70.8751C19.8781 70.0112 17.0007 70.9575 14.5913 73.6317ZM25.3037 130.922C24.8133 131.726 24.2781 131.79 23.6108 131.247C23.2973 130.991 22.8585 130.86 22.5965 130.563C21.5239 129.352 20.3707 129.837 19.1929 130.316C19.0163 130.374 18.8603 130.482 18.7439 130.626C18.6275 130.77 18.5555 130.945 18.5368 131.129C18.436 131.75 18.1852 132.36 18.1718 132.977C18.1427 134.28 17.4687 134.518 16.2976 134.482C13.7091 134.4 13.7068 134.458 13.2344 131.884C12.9343 130.254 10.9459 129.372 9.47698 130.22C8.92837 130.537 8.34842 130.817 7.85579 131.207C7.22882 131.703 6.80561 131.646 6.26148 131.047C4.28427 128.869 4.21261 128.844 6.04428 126.54C6.7765 125.62 6.15848 124.966 5.96143 124.195C5.7711 123.447 5.15531 123.567 4.60895 123.527C1.84129 123.333 1.8413 123.331 1.85473 120.543C1.86369 118.922 1.86369 118.922 3.51174 118.642C3.76925 118.597 4.02676 118.559 4.28427 118.522C4.84854 118.444 5.60987 118.677 5.81588 117.929C6.06443 117.027 6.63991 116.172 5.73303 115.155C4.07154 113.291 4.14767 113.22 5.73303 111.334C5.99726 111.022 6.2794 110.726 6.55034 110.421C6.91085 110.011 7.30495 109.996 7.73712 110.305C7.91625 110.436 8.14241 110.521 8.28796 110.679C9.59118 112.109 10.9593 111.597 12.3745 110.88C12.941 110.595 12.997 110.109 13.1157 109.604C13.7359 106.994 13.7427 107.032 16.4476 106.78C17.5224 106.68 18.089 106.998 18.1315 108.103C18.136 108.286 18.2479 108.466 18.2435 108.646C18.2054 110.192 18.9757 111.06 20.4356 111.523C20.991 111.701 21.3582 111.728 21.8643 111.423C24.5065 109.837 24.4908 109.873 26.5218 112.209C27.095 112.868 27.2092 113.376 26.5419 113.988C26.2956 114.211 26.1075 114.496 25.8926 114.752C24.914 115.898 24.8625 116.771 25.6575 118.049C25.8926 118.428 26.2173 118.481 26.6024 118.51C27.0838 118.548 27.563 118.633 28.0445 118.684C28.4856 118.731 28.9289 118.762 29.5156 118.811V122.697C29.5111 123.102 29.2872 123.291 28.8886 123.327C28.293 123.38 27.7019 123.454 27.1107 123.52C26.4904 123.592 25.8254 123.536 25.5231 124.295C25.1917 125.13 24.9409 125.821 25.6799 126.707C27.2876 128.628 27.2137 128.689 25.5768 130.61L25.3037 130.922ZM15.5161 115.981C12.8873 116.319 11.1452 118.346 11.3333 120.846C11.5191 123.322 13.5165 125.095 15.9841 124.974C18.2479 124.863 20.1602 122.864 20.196 120.57C20.2341 118.103 18.277 116.103 15.5161 115.983V115.981ZM128.401 34.2753C129.543 33.9413 130.264 34.5313 130.922 35.2105C131.397 35.7003 131.034 36.188 130.792 36.6355C130.295 37.5618 129.912 38.4102 130.423 39.548C130.781 40.3474 131.169 40.717 132.008 40.8083C133.558 40.9753 133.845 41.2692 133.869 42.4806C133.901 44.017 133.542 44.4378 131.993 44.685C130.239 44.97 129.671 46.0366 130.383 47.6442C130.645 48.2343 131.117 48.8021 130.831 49.5258C130.365 50.7059 129.118 51.1334 128 50.4899C127.709 50.3229 127.44 50.1203 127.156 49.9444C126.292 49.4077 125.259 49.7507 124.917 50.6792C124.225 52.5719 124.225 52.5273 122.364 52.5385C121.401 52.5451 120.918 52.1755 120.736 51.2581C120.615 50.6525 120.485 50.0802 119.74 49.7863C119.144 49.5503 118.788 49.528 118.264 49.9488C116.981 50.9731 116.278 50.9063 115.235 49.9199C114.578 49.3009 114.368 48.6863 114.926 47.8736C115.447 47.1209 115.752 46.3483 115.149 45.4175C114.767 44.8275 114.411 44.4935 113.667 44.4823C112.317 44.4623 111.838 44.0236 111.782 42.9571C111.692 41.1757 111.945 40.8284 113.51 40.5946C115.176 40.3429 115.987 38.7375 115.235 37.1878C114.384 35.4376 114.659 34.6649 116.262 34.0348C117.127 33.6941 117.695 34.1461 118.273 34.6182C118.712 34.9767 119.079 35.3307 119.751 35.0323C120.416 34.7362 120.716 34.3331 120.759 33.6073C120.803 32.8502 120.978 32.1466 122.013 32.0887C124.144 31.9729 124.424 32.0152 124.657 33.3979C124.841 34.4846 125.403 35.0234 126.397 35.2416C127.272 35.4331 127.615 34.489 128.401 34.273M121.164 39.7395C119.673 40.9263 119.256 42.3648 119.982 43.821C120.584 45.0323 122.187 45.8651 123.414 45.5912C124.778 45.2862 125.665 44.4823 125.967 43.104C126.236 41.8972 125.792 40.8952 124.912 40.1203C123.844 39.1851 122.624 38.9246 121.164 39.7395ZM17.0544 45.0012C15.805 44.4111 16.0781 43.3534 16.1543 42.436C16.2282 41.5543 17.0724 41.3138 17.7419 41.3138C18.9354 41.3116 19.2466 40.4743 19.7706 39.7061C20.2923 38.9401 20.7245 38.3189 20.2341 37.3191C19.8422 36.5264 19.6743 35.6024 20.7581 35.0123C22.0613 34.3042 22.6435 34.3443 23.622 35.3307C24.7371 36.4552 27.1376 36.6489 28.4139 35.6825C29.22 35.0724 29.9455 34.5803 31.0069 35.2817C32.2653 36.1145 32.4266 36.2525 31.9519 37.7043C31.6832 38.5282 31.757 39.1272 32.2116 39.9355C32.852 41.0711 33.4387 41.9283 34.8919 41.9729C35.6645 41.9974 35.8324 42.6921 35.7966 43.3913C35.754 44.2196 36.016 45.4109 34.8606 45.4554C32.8632 45.5356 32.5318 47.2657 31.5331 48.3278C31.0517 48.8399 31.5331 49.4701 31.6294 50.0245C31.9004 51.6144 31.6473 52.0464 30.1381 52.6164C29.3589 52.9103 28.8483 52.6676 28.3982 52.0798C27.7937 51.2893 27.1488 50.7081 25.9866 50.9263C25.0887 51.0956 24.1214 50.6168 23.2772 51.463C22.7129 52.0308 21.918 52.3625 21.0245 51.915C19.8445 51.3249 19.4705 50.6213 19.9856 49.4011C20.3438 48.5549 20.3953 47.8713 19.6788 47.2323C19.622 47.182 19.5815 47.1161 19.5623 47.043C19.2824 45.7404 18.3509 45.2216 17.0544 45.0012ZM28.2012 45.0501C29.0342 43.6318 28.8461 42.4627 27.619 41.4296C26.5128 40.4988 25.4067 40.4988 24.3117 41.4296C23.2727 42.3158 23.0062 43.6852 23.6534 44.8141C24.5804 46.4329 26.5285 46.5932 28.2012 45.0501ZM71.4044 99.1116C70.5311 97.3815 69.6623 95.854 67.3626 95.972C66.6707 96.0054 66.0191 95.3686 65.6496 94.6716C65.2757 93.9658 65.5332 93.536 66.2856 93.3757C66.5364 93.3245 66.805 93.3467 67.0648 93.3467C72.9158 93.3445 78.7691 93.34 84.6201 93.3467C85.2292 93.349 86.0107 93.1731 86.21 94.0014C86.407 94.8119 85.8159 95.304 85.1889 95.6803C84.4746 96.11 83.6909 96.3817 82.8512 96.3149C82.0092 96.2481 81.5457 96.5643 81.286 97.3703C80.8381 98.7665 79.9245 99.8397 78.6616 100.577C76.2052 102.013 73.4689 101.467 71.4066 99.1116H71.4044ZM60.8017 107.001C66.1266 106.983 71.4536 106.943 76.7829 106.956C78.0951 106.956 78.9482 107.682 79.2662 108.954C79.5842 110.223 79.8394 111.697 79.2483 112.754C78.7781 113.596 77.3204 113.044 76.3082 113.059C73.4779 113.1 70.652 112.884 67.8306 112.672C67.4219 112.652 67.03 112.504 66.711 112.249C64.9062 110.815 63.0902 109.394 61.2787 107.969C61.0145 107.76 60.7413 107.557 60.8017 107.076C60.8107 106.992 60.804 106.998 60.8017 107.001ZM83.4155 84.5202C77.9742 84.5202 72.6449 84.5246 67.3156 84.5202C66.87 84.518 66.4065 84.5202 65.9855 84.4022C65.2421 84.1929 64.7674 83.7052 64.7719 82.8747C64.7741 82.0285 65.2914 81.5966 66.0482 81.4229C66.4065 81.3405 66.7871 81.336 67.1588 81.336C73.0099 81.336 78.8632 81.3383 84.7142 81.3516C85.1598 81.3516 85.6188 81.365 86.042 81.4808C86.7877 81.6856 87.3005 82.1711 87.2736 82.9949C87.2467 83.8656 86.669 84.3621 85.8696 84.4734C85.1016 84.5826 84.3089 84.5135 83.4155 84.5202ZM84.9269 90.5389C79.152 90.5233 73.4824 90.5166 67.8127 90.4988C67.1787 90.5034 66.5453 90.4588 65.9183 90.3652C65.2063 90.2539 64.8323 89.7596 64.7763 89.0515C64.7136 88.29 65.0294 87.7288 65.775 87.5151C66.2063 87.4046 66.6509 87.3537 67.0961 87.3637C73.0659 87.3525 79.0333 87.3547 85.0031 87.3458C85.8204 87.3458 86.5929 87.4416 87.025 88.2432C87.6677 89.4345 86.7339 90.501 84.9269 90.5367V90.5389ZM53.8401 156.831C53.2847 156.816 53.5042 157.21 53.4975 157.437C53.4706 158.435 53.4751 159.434 53.4907 160.434C53.5042 161.28 53.0922 161.637 52.2592 161.637C51.4687 161.641 51.0993 161.28 51.0881 160.501C51.0523 158.096 50.9873 155.689 50.9761 153.284C50.9716 152.632 50.9537 151.895 51.7778 151.619C52.6085 151.343 53.1123 151.859 53.5714 152.42C54.7649 153.883 55.9494 155.351 57.2548 156.963C57.5124 155.698 57.3623 154.605 57.3825 153.525C57.4094 151.955 57.6131 151.67 58.7551 151.663C60.2106 151.652 59.9285 152.717 59.9397 153.556C59.9665 155.705 59.9553 157.854 59.9531 160C59.9531 160.637 59.9822 161.336 59.2097 161.563C58.4797 161.779 57.8236 161.592 57.3131 160.971C56.1666 159.582 55.0097 158.201 53.8423 156.829L53.8401 156.831ZM112.344 160.167C112.075 159.755 111.873 159.397 111.627 159.076C111.217 158.542 110.622 158.613 110.087 158.749C109.551 158.884 109.706 159.403 109.697 159.788C109.677 160.675 109.869 161.661 108.448 161.63C107.722 161.614 107.283 161.307 107.265 160.597C107.2 157.931 107.158 155.264 107.144 152.599C107.14 151.997 107.503 151.663 108.156 151.67C109.607 151.688 111.067 151.601 112.514 151.715C114.003 151.826 115.118 152.603 115.548 154.102C115.951 155.502 115.879 156.84 114.608 157.82C114.133 158.185 114.151 158.499 114.451 158.938C114.809 159.457 115.138 159.996 115.465 160.534C115.859 161.185 115.573 161.474 114.905 161.597C113.687 161.817 112.901 161.285 112.344 160.167ZM113.307 155.046C112.818 154.197 110.814 153.658 110.008 154.159C109.585 154.422 109.551 156.003 109.963 156.275C110.846 156.86 112.935 156.195 113.307 155.046ZM106.694 30.4365C105.037 31.1601 104.03 30.9263 103.483 29.7462C102.944 28.5772 103.414 27.4817 104.795 26.7535C107.89 25.1236 110.987 23.5004 114.088 21.8838C115.488 21.1557 116.703 21.3917 117.299 22.4806C117.926 23.6273 117.521 24.8809 116.112 25.6224C113.022 27.2545 109.887 28.811 106.694 30.4365ZM31.1861 159.735C31.1861 157.442 31.204 155.255 31.1749 153.071C31.1614 152.102 31.5197 151.612 32.5497 151.663C33.4051 151.706 34.2627 151.663 35.1203 151.674C38.0447 151.719 40.1249 153.589 40.1742 156.506C40.219 159.06 39.0255 161.196 35.6577 161.568C34.5538 161.69 33.4253 161.628 32.3101 161.605C31.0808 161.579 31.1838 160.666 31.1861 159.735ZM34.6725 159.212C34.8942 159.201 35.1203 159.218 35.3353 159.174C36.9363 158.84 37.5543 158.034 37.4469 156.442C37.3551 155.066 36.4303 154.182 34.9569 154.097C34.3724 154.064 33.7925 154.115 33.788 154.919C33.7813 156.139 33.7925 157.361 33.7858 158.582C33.7835 159.089 34.0948 159.201 34.6725 159.212ZM38.9897 27.1722C37.8633 26.5776 36.7953 26.0499 35.7607 25.4643C34.5314 24.7651 34.0881 23.4892 34.6635 22.4694C35.2726 21.3873 36.4952 21.0622 37.7693 21.7257C40.9378 23.3735 44.0951 25.0412 47.2411 26.7313C48.5399 27.4305 48.9541 28.5928 48.3742 29.6928C47.792 30.7994 46.5067 31.1 45.1945 30.4164C43.1479 29.3543 41.108 28.2788 38.9919 27.1722H38.9897ZM98.398 152.859C98.6555 151.886 99.2399 151.55 100.153 151.534C101.049 151.519 101.625 151.817 101.985 152.656C103.053 155.144 104.166 157.611 105.252 160.091C105.481 160.612 105.707 161.274 105.039 161.536C104.412 161.781 103.445 161.937 103.152 161.14C102.614 159.686 101.535 159.751 100.362 159.813C99.9161 159.835 99.4661 159.842 99.0205 159.811C98.4181 159.766 98.0352 159.996 97.8023 160.554C97.6299 160.966 97.406 161.412 96.9425 161.525C96.376 161.663 95.7244 161.824 95.2295 161.403C94.7279 160.973 95.0638 160.405 95.2564 159.956C96.2685 157.606 97.3254 155.275 98.398 152.859ZM100.908 156.313C100.707 155.988 100.702 155.522 100.196 155.34C99.7325 155.992 99.3474 156.669 99.1638 157.52C99.8243 157.753 100.454 157.809 101.004 157.457C101.416 157.19 101.027 156.794 100.908 156.313ZM45.1228 154.146C44.5183 154.313 44.4197 154.685 44.5541 155.126C44.6772 155.536 45.0691 155.495 45.396 155.504C46.0678 155.518 46.7396 155.504 47.4113 155.524C48.1704 155.549 48.5891 155.93 48.5578 156.716C48.5264 157.471 48.1682 157.882 47.3621 157.847C46.8784 157.825 46.3902 157.802 45.911 157.856C45.3557 157.914 44.4712 157.522 44.5026 158.579C44.5339 159.622 45.4162 159.203 45.9626 159.252C46.6657 159.316 47.3777 159.274 48.0876 159.274C48.8869 159.274 49.4042 159.653 49.4042 160.454C49.4042 161.271 48.8623 161.619 48.0741 161.619L43.0404 161.605C42.2522 161.605 41.9051 161.222 41.9118 160.432C41.9297 157.871 41.9253 155.315 41.9118 152.757C41.9074 152.017 42.2029 151.67 42.9732 151.677C44.6884 151.695 46.4037 151.672 48.1189 151.668C48.8847 151.663 49.1669 152.151 49.2184 152.803C49.2743 153.496 48.9496 153.981 48.2309 154.033C47.2277 154.104 46.2201 154.099 45.1228 154.146ZM54.9843 16.3617C53.5019 14.3176 52.0621 12.3403 50.6402 10.3519C49.7065 9.04702 49.805 7.91587 50.8866 7.14544C51.995 6.35942 53.2243 6.64444 54.1312 7.92701C55.9079 10.4374 57.6731 12.9558 59.4269 15.4821C59.9195 16.1924 60.1188 16.9606 59.5478 17.7489C58.9992 18.5082 58.2894 18.8533 57.331 18.7063C56.8092 18.624 56.4398 18.3412 56.1397 17.9582C55.7501 17.4616 55.4008 16.9384 54.9843 16.3617ZM134.774 160.759C131.908 162.63 128.334 161.605 127.64 158.66C127.156 156.604 127.454 154.458 127.514 152.356C127.534 151.666 128.208 151.536 128.784 151.548C129.512 151.559 130 151.948 130.024 152.703C130.065 153.886 130.047 155.07 130.054 156.255C130.058 156.662 130.031 157.076 130.089 157.475C130.233 158.455 131.119 159.25 131.977 159.214C132.906 159.176 133.668 158.428 133.708 157.361C133.764 155.883 133.753 154.4 133.724 152.919C133.708 152.051 134.082 151.579 134.948 151.548C135.777 151.519 136.202 152.011 136.227 152.777C136.285 154.551 136.35 156.328 136.187 158.101C136.093 159.141 135.6 159.998 134.776 160.759H134.774ZM28.9849 152.071C29.4507 154.387 29.5044 156.651 29.0431 158.867C28.6737 160.639 26.6114 161.895 24.7439 161.761C22.3927 161.592 20.982 160.441 20.6461 158.381C20.3416 156.502 20.5095 154.607 20.5274 152.719C20.5342 151.784 21.1791 151.545 21.974 151.581C22.7577 151.617 23.0667 152.066 23.0555 152.832C23.0331 154.28 23.0219 155.727 23.0734 157.174C23.1025 157.978 23.3936 158.689 24.2177 159.067C24.8401 159.354 25.3888 159.205 25.9015 158.847C26.5016 158.426 26.6987 157.805 26.6964 157.099C26.6964 155.801 26.692 154.5 26.7009 153.202C26.7144 151.63 27.4958 151.209 28.9849 152.071ZM95.6728 11.1958C96.5752 9.96441 97.397 8.77091 98.2994 7.64199C99.1503 6.57541 100.256 6.43959 101.219 7.18107C102.137 7.88247 102.27 8.92456 101.495 10.0312C99.6655 12.646 97.8151 15.2461 95.9438 17.8313C95.2362 18.811 93.9711 19.0559 93.0799 18.4659C92.8559 18.3145 92.6642 18.1207 92.5157 17.8956C92.3671 17.6704 92.2648 17.4183 92.2145 17.1537C92.1641 16.8892 92.1668 16.6173 92.2223 16.3538C92.2778 16.0902 92.3851 15.8402 92.538 15.6179C93.5098 14.1305 94.5913 12.7099 95.6728 11.1958ZM50.2372 79.3944C49.9282 77.7021 48.8981 76.8003 47.3822 76.3527C47.062 76.257 46.7284 76.1746 46.4373 76.0187C45.6759 75.6068 45.6535 74.7896 46.3925 74.3487C46.6769 74.1817 47.0038 74.0615 47.3262 73.9836C48.9653 73.5872 49.8341 72.4961 50.1991 70.9219C50.3402 70.2984 50.4857 69.6193 51.2919 69.5747C52.1114 69.5302 52.3129 70.1849 52.4786 70.8128C52.9175 72.4895 53.8893 73.6251 55.6426 74.0504C56.2024 74.1862 56.863 74.3577 56.8316 75.1526C56.8003 75.9631 56.1353 76.1501 55.5239 76.2993C53.8781 76.7001 52.8481 77.662 52.5055 79.341C52.3823 79.9555 52.2614 80.6191 51.3926 80.628C50.6089 80.6347 50.4275 80.0668 50.2372 79.3944ZM73.9436 12.2668C73.9056 8.90897 73.8675 5.64912 73.8406 2.39149C73.8272 0.830591 74.5393 -0.00664036 75.8469 3.96645e-05C77.1681 0.00671969 77.8936 0.823908 77.8981 2.35363C77.9048 5.53778 77.907 8.72416 77.8958 11.9105C77.8891 13.2131 77.195 14.0526 76.0754 14.1817C75.0229 14.3042 74.3109 13.6963 73.9436 12.2668ZM143.319 151.706C145.956 152.131 147.192 154.683 146.373 156.504C145.797 157.78 144.788 158.426 143.444 158.62C143.041 158.68 142.622 158.742 142.219 158.702C141.16 158.597 140.701 159.002 140.811 160.085C140.862 160.583 140.932 161.147 140.363 161.476C139.49 161.98 138.457 161.467 138.426 160.465C138.354 158.096 138.294 155.723 138.292 153.351C138.292 151.844 138.643 151.588 140.199 151.646C141.207 151.681 142.215 151.679 143.319 151.706ZM142.736 154.061C142.087 154.249 141.073 153.538 140.849 154.774C140.591 156.181 140.887 156.457 142.45 156.417C143.144 156.397 143.858 156.362 143.984 155.504C144.096 154.738 143.681 154.251 142.736 154.061ZM81.221 157.771C78.9147 156.99 78.178 156.212 78.1914 154.634C78.2071 152.774 79.4319 151.663 81.6913 151.561C82.7459 151.512 83.7648 151.766 84.6918 152.296C85.2225 152.603 85.48 153.048 85.0613 153.576C84.6761 154.061 84.5104 155.052 83.4983 154.478C82.9196 154.131 82.2468 153.97 81.5726 154.019C81.183 154.05 80.7777 154.135 80.7195 154.576C80.6612 154.992 81.062 155.11 81.3755 155.213C82.0473 155.435 82.7325 155.613 83.402 155.836C84.8665 156.326 85.6367 157.321 85.6323 158.682C85.6278 159.882 84.6425 161.158 83.2789 161.467C81.5995 161.85 79.938 161.779 78.4735 160.695C78.057 160.387 77.5152 160.071 77.9316 159.45C78.3213 158.871 78.7378 158.252 79.6446 158.695C80.2448 158.989 80.8717 159.247 81.5592 159.274C82.11 159.296 82.8557 159.457 82.9743 158.762C83.0863 158.107 82.2959 158.123 81.8458 157.929C81.6778 157.856 81.4853 157.84 81.2188 157.771H81.221ZM5.74871 159.114C6.33762 159.303 6.85263 159.354 7.3766 159.252C7.68338 159.192 7.97223 159.056 8.01926 158.722C8.073 158.35 7.75055 158.214 7.47289 158.116C6.70037 157.847 5.90545 157.635 5.14412 157.341C3.59683 156.74 2.887 155.769 2.98105 154.462C3.0751 153.153 4.04691 152.082 5.51135 151.686C6.99594 151.283 8.38649 151.563 9.69866 152.311C10.2405 152.623 10.4354 153.035 9.94945 153.572C9.5352 154.028 9.46802 155.07 8.41559 154.413C7.81101 154.037 7.15268 153.745 6.41151 153.879C6.08906 153.935 5.72407 154.059 5.65466 154.444C5.57853 154.881 5.96815 155.006 6.26596 155.119C7.0676 155.418 7.8961 155.645 8.69102 155.959C9.96736 156.466 10.6929 157.591 10.5943 158.927C10.5025 160.189 9.70762 160.96 8.57234 161.334C6.81233 161.915 5.11053 161.735 3.57892 160.635C3.12884 160.312 2.62726 159.933 3.10868 159.27C3.51398 158.706 3.93719 158.179 4.75226 158.662C5.03888 158.833 5.36132 158.942 5.74871 159.114Z" fill="black"/>
<path d="M145.11 96.0945C147.226 97.2367 148.055 99.3454 147.17 101.165C146.261 103.039 143.869 103.895 141.915 103.046C140.076 102.249 139.151 100.08 139.859 98.2254C140.638 96.1857 142.703 95.3196 145.112 96.0945H145.11ZM4.46564 42.5407C5.48 41.9573 5.93904 41.1022 6.12265 40.0691C6.23013 39.4567 6.41823 38.8733 7.1706 38.8333C7.92969 38.7954 8.05284 39.4211 8.16704 39.9577C8.51412 41.6055 9.4098 42.6965 11.1385 43.0061C11.6916 43.104 12.1595 43.3556 12.1864 43.9791C12.211 44.6338 11.6893 44.8631 11.1721 44.9856C9.4837 45.3864 8.4044 46.3394 8.11106 48.0985C8.02597 48.6084 7.73488 48.978 7.12358 48.9535C6.50556 48.929 6.24805 48.4993 6.18759 48.0161C5.97486 46.3082 4.96274 45.393 3.35724 44.99C2.78848 44.8475 2.27346 44.6003 2.28242 43.9056C2.28914 43.2376 2.84222 43.1085 3.33932 42.9415C3.69312 42.8257 4.04243 42.701 4.46564 42.5407ZM89.6404 157.101V156.544C89.6494 154.277 89.6516 154.264 87.4214 154.046C86.6869 153.975 86.3354 153.583 86.3287 152.904C86.3219 152.236 86.6287 151.712 87.3632 151.701C89.7076 151.672 92.0521 151.679 94.3943 151.69C95.1041 151.692 95.3459 152.162 95.3638 152.797C95.3862 153.465 95.1847 153.928 94.4167 154.046C93.7158 154.155 92.7507 153.645 92.3656 154.422C92.0655 155.026 92.2334 155.867 92.2245 156.604C92.2088 157.751 92.2066 158.898 92.2245 160.045C92.2357 160.958 92.0767 161.663 90.9033 161.639C89.7322 161.617 89.618 160.882 89.6337 159.987C89.6516 159.063 89.6382 158.139 89.6404 157.101ZM64.0956 158.208C64.0979 157.096 64.0732 156.094 64.1068 155.097C64.1337 154.338 63.8336 153.99 63.0589 154.05C62.7252 154.077 62.3871 154.044 62.0512 154.048C61.3638 154.057 61.0055 153.705 60.9809 153.039C60.954 152.327 61.2451 151.732 62.0154 151.712C64.324 151.652 66.6349 151.654 68.9457 151.668C69.5145 151.668 69.7899 152.062 69.8257 152.625C69.8616 153.226 69.7295 153.739 69.1047 153.984C68.9704 154.035 68.8136 154.033 68.6658 154.048C66.6125 154.253 66.6125 154.251 66.6282 156.373C66.6371 157.671 66.6461 158.967 66.6505 160.265C66.655 161.14 66.2632 161.712 65.3406 161.719C64.4405 161.726 64.127 161.122 64.1091 160.321C64.0934 159.653 64.1001 158.985 64.0979 158.208H64.0956ZM76.3664 170.022C76.0664 170.436 76.2545 170.668 76.4784 170.962C77.6786 172.57 76.8591 174.476 74.8326 174.698C73.8026 174.812 72.7501 174.743 71.7044 174.734C71.0103 174.727 70.6744 174.282 70.6632 173.663C70.6248 171.773 70.6144 169.884 70.6319 167.994C70.6363 167.281 71.064 166.903 71.785 166.927C72.7524 166.958 73.7287 166.95 74.6848 167.076C76.3105 167.295 76.9262 168.381 76.3642 170.022M72.5441 172.371C72.5128 173.006 72.927 173.084 73.4174 173.059C73.9548 173.031 74.5572 173.206 74.9356 172.636C75.0991 172.392 75.0476 172.147 74.855 171.931C74.4183 171.441 73.0323 171.605 72.5441 172.371ZM72.5486 169.288C72.7479 170.441 73.6167 169.844 74.2123 169.882C74.5012 169.904 74.8371 169.63 74.7408 169.301C74.5303 168.564 73.863 168.795 73.3368 168.762C73.0256 168.74 72.7412 168.811 72.5486 169.288ZM117.487 153.852C116.766 152.409 117.154 151.695 118.58 151.686C120.593 151.67 122.604 151.695 124.615 151.661C125.465 151.646 125.994 151.928 126.012 152.832C126.034 153.79 125.51 154.086 124.592 154.075C122.85 154.053 122.85 154.09 122.855 155.832C122.859 157.277 122.855 158.72 122.866 160.165C122.872 161.004 122.664 161.634 121.639 161.628C120.602 161.623 120.297 161.027 120.304 160.116C120.315 158.45 120.275 156.783 120.324 155.117C120.347 154.286 120.038 153.981 119.218 154.03C118.669 154.061 118.098 154.135 117.487 153.852ZM47.1247 168.027C47.9353 169.038 48.5869 170.078 49.5901 170.971C49.917 169.991 49.7132 169.078 49.7513 168.183C49.7804 167.484 49.9147 166.865 50.7522 166.88C51.6031 166.894 51.6994 167.544 51.6949 168.228C51.686 169.893 51.6949 171.559 51.6904 173.224C51.6904 173.866 51.6837 174.562 50.9582 174.819C50.2238 175.077 49.7983 174.527 49.4042 174.017C48.5757 172.948 47.8435 171.797 46.7239 170.764V173.545C46.7239 174.204 46.5403 174.767 45.77 174.783C44.9639 174.799 44.834 174.204 44.8318 173.556C44.8295 171.817 44.8206 170.076 44.8206 168.337C44.8206 167.785 44.7332 167.163 45.4184 166.929C46.0723 166.707 46.4507 167.172 46.8179 167.6C46.9142 167.711 46.9926 167.84 47.1247 168.027ZM14.2577 151.67C15.6684 151.67 16.9716 151.686 18.2748 151.666C19.11 151.652 19.643 151.922 19.6698 152.846C19.6967 153.777 19.1996 154.055 18.3442 154.07C16.4812 154.104 16.5193 154.124 16.6335 156.039C16.7163 157.442 16.6894 158.851 16.7006 160.256C16.7051 161.136 16.3424 161.657 15.3638 161.628C14.4077 161.599 14.1815 161.015 14.1771 160.225C14.1726 158.595 14.1323 156.965 14.186 155.337C14.2196 154.391 13.9263 153.93 12.9231 154.053C12.632 154.086 12.3252 154.073 12.0319 154.026C11.3736 153.921 11.0691 153.474 11.0914 152.848C11.1138 152.198 11.3893 151.681 12.1416 151.654C12.8089 151.632 13.4807 151.663 14.2577 151.67ZM48.1726 99.4723C50.1409 98.9468 51.527 99.41 52.4406 100.833C53.3855 102.305 53.1325 104.048 51.8136 105.119C50.3917 106.277 48.4861 106.286 47.2277 105.139C45.9066 103.937 45.6961 102.022 46.7351 100.628C47.1027 100.122 47.5988 99.7226 48.1726 99.4701V99.4723ZM93.8591 173.169C92.3051 170.107 93.9867 166.887 97.088 166.829C99.0294 166.794 100.888 168.25 101.327 170.149C101.69 171.721 100.731 173.736 99.2668 174.482C97.312 175.48 95.3862 175.032 93.8591 173.169ZM96.3625 172.908C96.5394 172.964 96.7096 173.048 96.8887 173.071C98.2435 173.249 99.4325 172.273 99.4638 170.966C99.4698 170.662 99.4134 170.36 99.298 170.079C99.1826 169.797 99.0107 169.542 98.7927 169.328C98.5748 169.115 98.3154 168.948 98.0304 168.837C97.7454 168.727 97.4407 168.676 97.1351 168.686C95.8565 168.724 94.9697 169.855 95.1287 171.22C95.2138 171.951 95.6952 172.394 96.3625 172.908ZM109.404 170.621C109.229 170.915 109.126 171.185 108.933 171.334C108.226 171.868 108.356 172.387 108.799 173.037C109.104 173.487 109.874 174.062 108.971 174.598C108.212 175.05 107.628 174.571 107.214 173.919C106.974 173.545 106.782 173.142 106.542 172.768C106.296 172.38 105.919 172.256 105.474 172.356C104.981 172.472 105.024 172.877 105.008 173.247C105.001 173.467 105.008 173.69 104.995 173.91C104.966 174.429 104.688 174.736 104.171 174.796C103.577 174.863 103.167 174.518 103.154 173.999C103.096 171.928 103.096 169.858 103.127 167.787C103.136 167.279 103.555 167.043 104.072 167.041C104.818 167.039 105.561 167.023 106.307 167.023C108.618 167.016 109.706 168.243 109.404 170.621ZM106.52 168.891C105.987 168.98 105.266 168.602 105.019 169.426C104.742 170.356 105.4 170.813 106.64 170.546C107.111 170.443 107.655 170.316 107.684 169.724C107.715 169.112 107.22 168.958 106.52 168.891ZM142.916 35.4331C142.002 35.8384 141.653 36.5509 141.496 37.3882C141.388 37.9604 141.111 38.3746 140.486 38.3746C139.904 38.3746 139.644 37.9671 139.555 37.446C139.342 36.1991 138.516 35.54 137.382 35.1548C136.885 34.9856 136.352 34.803 136.348 34.1528C136.341 33.4336 136.939 33.2399 137.472 33.1218C138.63 32.868 139.275 32.1644 139.546 31.0577C139.687 30.4877 139.92 29.9511 140.611 29.9711C141.247 29.9867 141.442 30.4988 141.552 31.0377C141.787 32.1688 142.517 32.8457 143.594 33.1708C144.149 33.3401 144.678 33.4647 144.649 34.2196C144.622 34.9722 144.058 35.0657 143.516 35.2194C143.337 35.2684 143.164 35.3396 142.913 35.4354L142.916 35.4331ZM61.8519 171.078C61.8519 169.971 61.8385 168.969 61.8654 167.969C61.881 167.364 62.1005 166.836 62.8282 166.858C63.5269 166.88 63.7754 167.366 63.7844 167.994C63.7978 168.882 63.7776 169.773 63.8023 170.661C63.8135 171.064 63.8694 171.47 63.9433 171.866C64.0978 172.697 64.5927 173.275 65.4548 173.202C66.3841 173.124 66.7423 172.398 66.7647 171.536C66.7916 170.534 66.7715 169.532 66.7782 168.53C66.7782 168.237 66.7692 167.936 66.8118 167.644C66.8789 167.194 67.1477 166.898 67.6179 166.856C68.0971 166.811 68.4755 167.074 68.5203 167.513C68.7196 169.495 69.0644 171.525 68.1956 173.414C67.5776 174.756 66.2632 175.092 64.8771 174.95C63.5448 174.816 62.573 174.104 62.1385 172.817C61.9639 172.298 61.9437 171.73 61.8519 171.08V171.078ZM78.2787 174.373C78.8788 171.888 79.8775 169.622 81.0083 167.424C81.4248 166.613 82.4257 166.689 82.9004 167.511C84.0133 169.441 84.7724 171.536 85.639 173.583C85.8405 174.066 85.7756 174.567 85.1867 174.774C84.6403 174.966 84.2776 174.685 83.9865 174.231C83.046 172.754 81.0397 172.746 80.1417 174.2C79.6424 175.01 79.0266 175.104 78.2787 174.373ZM82.3384 170.203C82.1816 169.951 82.0137 169.568 81.7383 170.076C81.5368 170.452 81.2725 170.837 81.3576 171.332C81.7831 171.577 82.1861 171.588 82.6049 171.305C82.6899 170.94 82.4772 170.65 82.3384 170.203ZM60.2061 173.897C58.5536 175.308 56.4622 175.308 54.8611 173.968C53.4101 172.754 53.0541 170.247 54.0953 168.584C55.0806 167.012 57.3422 166.339 59.1403 167.141C59.6687 167.377 60.4838 167.571 60.1255 168.448C59.7941 169.25 59.2388 169.374 58.4192 168.936C57.4116 168.397 56.4039 168.664 55.8128 169.448C55.1276 170.356 55.1791 171.472 55.9516 172.405C56.5764 173.157 57.6601 173.362 58.5805 172.901C59.5545 172.414 59.962 172.641 60.2061 173.897ZM107.809 65.1125C107.585 64.1773 107.138 63.5739 106.235 63.3133C105.734 63.1664 105.25 62.8836 105.25 62.249C105.248 61.6277 105.769 61.4808 106.222 61.3316C107.032 61.0644 107.559 60.5678 107.771 59.7306C107.883 59.2831 108.089 58.8622 108.649 58.8845C109.142 58.9045 109.359 59.2853 109.442 59.6972C109.623 60.5879 110.154 61.1089 111.007 61.4051C111.448 61.5565 111.934 61.7658 111.907 62.3937C111.885 62.9571 111.457 63.1196 111.029 63.2666C110.201 63.556 109.686 64.0793 109.422 64.9544C109.119 65.9497 108.615 65.9876 107.809 65.1125ZM80.3478 43.271C82.6138 43.4202 83.4401 45.1014 82.2555 46.9116C81.2636 48.4258 79.7566 48.7731 78.0996 48.8155C77.6473 48.8266 77.4547 48.5616 77.383 48.1341C77.0516 46.2258 78.3907 43.9524 80.3478 43.271ZM88.2566 169.468C88.176 168.564 87.5401 168.755 87.0609 168.746C86.3802 168.731 85.6972 168.657 85.6994 167.816C85.7017 167.032 86.3802 166.936 86.9982 166.925C88.3014 166.903 89.6024 166.901 90.9056 166.903C91.5863 166.903 92.2088 167.043 92.2581 167.88C92.3118 168.775 91.6333 168.762 91.031 168.742C90.3234 168.72 90.1308 169.089 90.1375 169.706C90.1532 170.964 90.1532 172.222 90.1443 173.48C90.1376 174.144 90.0211 174.85 89.1859 174.834C88.3574 174.816 88.2678 174.122 88.2678 173.449C88.2678 172.153 88.2633 170.86 88.2566 169.468ZM72.1276 43.3156C74.0332 44.0526 75.1595 46.5309 74.5191 48.3902C74.4519 48.5794 74.3624 48.7019 74.1675 48.7731C72.6628 49.3187 69.8302 47.4349 69.6824 45.7894C69.5414 44.2085 70.3654 43.3401 72.1276 43.3178V43.3156ZM74.0466 116.281C75.5693 116.281 76.9867 116.304 78.4019 116.281C79.1028 116.27 79.4252 116.533 79.4095 117.261C79.3804 118.539 79.4028 119.82 79.4028 121.12C77.9742 120.853 73.0256 117.602 72.1881 116.415C72.7725 116.161 73.3682 116.326 74.0466 116.281ZM135.134 22.5852C134.442 22.8346 134.301 23.3957 134.111 23.9145C133.963 24.3242 133.742 24.6672 133.262 24.6827C132.774 24.6983 132.501 24.3376 132.389 23.9479C132.143 23.084 131.664 22.5273 130.754 22.3225C130.568 22.2831 130.402 22.1804 130.284 22.032C130.166 21.8836 130.103 21.6989 130.107 21.5097C130.092 20.9998 130.423 20.7638 130.835 20.648C131.708 20.4031 132.239 19.8753 132.461 18.9936C132.55 18.6306 132.761 18.2944 133.215 18.2855C133.733 18.2766 133.93 18.664 134.03 19.0648C134.216 19.7907 134.525 20.3563 135.327 20.579C135.82 20.717 136.359 20.9263 136.312 21.6055C136.263 22.269 135.694 22.367 135.134 22.5852ZM96.788 132.302C95.3952 131.258 95.1153 130.018 95.9371 128.82C96.6984 127.704 98.2278 127.35 99.3832 128.018C100.451 128.64 100.836 129.929 100.304 131.109C99.7034 132.44 98.3957 132.913 96.788 132.302ZM119.729 133.213C118.994 132.133 118.896 131.067 119.552 130.033C120.044 129.256 120.864 128.967 121.775 129.06C122.886 129.172 123.746 129.944 123.967 130.969C124.185 131.975 123.643 133.137 122.691 133.705C121.643 134.329 120.884 134.217 119.729 133.213ZM5.67481 101.835C4.81048 102.176 4.12081 102.556 3.95958 103.505C3.89241 103.892 3.64386 104.173 3.19378 104.191C3.00387 104.209 2.81392 104.155 2.66281 104.039C2.51169 103.924 2.41086 103.755 2.38094 103.567C2.20181 102.705 1.6756 102.22 0.860527 101.968C0.493297 101.853 0.150698 101.648 0.128306 101.222C0.105914 100.766 0.392532 100.432 0.800067 100.29C1.63529 100 2.21077 99.5258 2.38319 98.6061C2.45036 98.2298 2.72354 97.9448 3.18258 97.976C3.6237 98.0072 3.8633 98.2922 3.95287 98.6729C4.14768 99.499 4.59552 100.027 5.4397 100.301C6.29507 100.581 6.44734 101.127 5.67481 101.835ZM18.9287 26.1434C19.0317 25.8963 19.0899 25.7204 19.1615 25.5489C19.3272 25.1593 19.5377 24.7918 20.0393 24.8275C20.467 24.8586 20.6931 25.1704 20.7961 25.5467C21.0089 26.3171 21.4142 26.8649 22.2427 27.0675C22.6301 27.1633 22.8473 27.4839 22.8607 27.9047C22.8719 28.3323 22.6592 28.6551 22.2606 28.7397C21.4701 28.9067 21.0469 29.3743 20.8633 30.1336C20.7558 30.5723 20.4379 30.8506 19.9721 30.835C19.5713 30.8217 19.2265 30.599 19.1257 30.2116C18.9175 29.41 18.4719 28.9201 17.6344 28.7576C17.4457 28.7293 17.2734 28.6347 17.1489 28.4908C17.0244 28.347 16.9559 28.1635 16.9559 27.9738C16.9408 27.7669 16.9983 27.5611 17.1188 27.3918C17.2393 27.2224 17.4152 27.0999 17.6165 27.0452C18.1203 26.8805 18.6107 26.7157 18.9287 26.1434ZM42.6553 172.225C42.6597 172.628 42.6597 172.924 42.6664 173.22C42.6799 173.999 42.6441 174.876 41.6364 174.852C40.6624 174.83 40.6086 173.952 40.6086 173.178C40.6086 171.77 40.6041 170.363 40.6064 168.956C40.6064 168.624 40.5907 168.286 40.6422 167.958C40.7362 167.377 40.9579 166.829 41.679 166.898C42.3015 166.956 42.5142 167.417 42.5254 168.012C42.5545 169.381 42.6105 170.75 42.6553 172.225ZM38.7971 57.1877C37.4558 56.3483 37.4267 55.9809 38.6247 55.0902C38.9785 54.8275 39.1397 54.4734 39.3144 54.106C39.4577 53.7987 39.6144 53.4959 40.0331 53.5204C40.3802 53.5382 40.5907 53.7564 40.6825 54.0504C40.884 54.6961 41.3095 55.0724 41.9051 55.393C42.5634 55.7493 42.5657 56.3082 41.876 56.6489C41.408 56.8782 41.0788 57.1388 40.8908 57.6242C40.7295 58.0272 40.5773 58.4993 40.004 58.4859C39.4465 58.4748 39.3099 58.0027 39.0927 57.622C39.0188 57.495 38.9359 57.3726 38.7971 57.19V57.1877ZM2.08537 62.0419C1.1158 61.768 0.768719 60.8818 0.108154 60.3363C-0.140397 60.1314 0.083524 59.7573 0.336554 59.5837C0.732893 59.3098 1.14266 59.0648 1.38674 58.6262C1.436 58.5371 1.54348 58.4458 1.63977 58.428C2.70563 58.2365 2.74593 59.4523 3.47591 59.784C3.83419 59.9444 3.67297 60.4966 3.34156 60.7193C2.82431 61.0599 2.64069 61.6634 2.08761 62.0419H2.08537Z" fill="black"/>
</svg>
