<svg width="32" height="32" viewBox="0 0 32 32" fill="none" xmlns="http://www.w3.org/2000/svg">
<g clip-path="url(#clip0_19968_251)">
<rect width="32" height="32" rx="4" fill="white"/>
<path d="M9.88986 17.1252L4.47374 15.4229C4.47374 15.4229 3.83434 15.1694 4.0412 14.5899C4.07881 14.4631 4.17284 14.3726 4.43613 14.1915C5.63971 13.3946 26.646 6.11464 26.646 6.11464C26.646 6.11464 27.2478 5.91544 27.5863 6.04221C27.7555 6.09653 27.8496 6.16897 27.9436 6.40439C27.9812 6.49494 28 6.67604 28 6.85713C28 6.9839 27.9812 7.11066 27.9624 7.30987C27.8307 9.30191 24.0131 24.1335 24.0131 24.1335C24.0131 24.1335 23.7875 25.0028 22.96 25.039C22.6591 25.0571 22.3018 24.9847 21.8693 24.6225C20.2519 23.2824 14.6854 19.6786 13.463 18.8999C13.3878 18.8637 13.369 18.7913 13.369 18.7369C13.3502 18.6464 13.4442 18.5558 13.4442 18.5558C13.4442 18.5558 23.0243 10.7816 23.2688 9.91232C23.2876 9.83989 23.2124 9.80367 23.1184 9.83989C22.479 10.0753 11.4319 16.3284 10.2096 17.089C10.0967 17.1614 9.88986 17.1252 9.88986 17.1252Z" fill="#163152"/>
</g>
<defs>
<clipPath id="clip0_19968_251">
<rect width="32" height="32" fill="white"/>
</clipPath>
</defs>
</svg>
