<svg width="32" height="32" viewBox="0 0 32 32" fill="none" xmlns="http://www.w3.org/2000/svg">
<g clip-path="url(#clip0_19968_254)">
<rect width="32" height="32" rx="4" fill="white"/>
<path d="M4.48364 27.5161L6.16078 21.3666C5.26631 19.6895 4.70727 17.7887 4.70727 15.888C4.70727 9.62664 9.85049 4.4834 16.1118 4.4834C22.3731 4.4834 27.5164 9.62664 27.5164 15.888C27.5164 22.1493 22.3731 27.2925 16.1118 27.2925C14.2111 27.2925 12.4221 26.8453 10.745 25.9508L4.48364 27.5161ZM10.9686 23.6028L11.304 23.8264C12.7575 24.7209 14.3229 25.1681 16 25.1681C21.0314 25.1681 25.1684 21.0312 25.1684 15.9998C25.1684 10.9684 21.0314 6.8314 16 6.8314C10.9686 6.8314 6.83165 10.9684 6.83165 15.9998C6.83165 17.6769 7.27886 19.3541 8.17334 20.8076L8.39697 21.2548L7.50251 24.7209L10.9686 23.6028Z" fill="#163152"/>
<path fill-rule="evenodd" clip-rule="evenodd" d="M20.2484 17.4548C19.8012 17.1194 19.1303 16.8957 18.5713 17.1194C18.124 17.343 17.9004 17.902 17.565 18.2375C17.4532 18.4611 17.2296 18.4611 17.006 18.3493C15.4406 17.6784 14.2107 16.6721 13.3162 15.2186C13.2044 14.995 13.2044 14.7713 13.428 14.5477C13.6517 14.2123 13.9871 13.8769 14.0989 13.4296C14.2107 12.9824 13.9871 12.5352 13.7635 12.1998C13.5398 11.7525 13.3162 11.0816 12.869 10.7462C12.4218 10.5226 11.8627 10.6344 11.4155 10.9699C10.7446 11.5289 10.4092 12.4234 10.4092 13.206C10.4092 13.4297 10.4092 13.6533 10.521 13.8769C10.6328 14.4359 10.9682 14.995 11.1919 15.4422C11.4155 15.7777 11.6391 16.2249 11.8627 16.5603C12.7572 17.6784 13.7635 18.6847 14.9934 19.4674C15.5524 19.8028 16.2233 20.1382 16.8941 20.3618C17.6768 20.5855 18.3477 20.9209 19.1303 20.6972C20.0248 20.5854 20.8075 20.0264 21.1429 19.1319C21.2547 18.9083 21.2547 18.5729 21.2547 18.3493C21.3665 18.0138 20.6957 17.7902 20.2484 17.4548Z" fill="#163152"/>
</g>
<defs>
<clipPath id="clip0_19968_254">
<rect width="32" height="32" fill="white"/>
</clipPath>
</defs>
</svg>
