<svg width="22" height="21" viewBox="0 0 22 21" fill="none" xmlns="http://www.w3.org/2000/svg">
<path fill-rule="evenodd" clip-rule="evenodd" d="M20.8422 19.3162C20.584 19.8124 20.0711 20.1236 19.5117 20.1236H2.45703C1.88247 20.1236 1.35838 19.7954 1.10754 19.2785C0.856691 18.7616 0.923161 18.1468 1.2787 17.6954L2.45703 18.6236H19.5117L20.7404 17.7632C21.0613 18.2214 21.1005 18.8201 20.8422 19.3162ZM18.2955 17.1236C19.0202 17.9217 19.5117 18.6236 19.5117 18.6236C20.7404 17.7632 20.7405 17.7634 20.7404 17.7632L20.7377 17.7593L20.7329 17.7525L20.7175 17.7309C20.7047 17.7129 20.6868 17.6879 20.664 17.6566C20.6185 17.5941 20.5536 17.5061 20.4716 17.3981C20.308 17.1828 20.0742 16.8853 19.7888 16.5505C19.2312 15.8964 18.4227 15.0355 17.5182 14.3828C16.5595 13.6909 15.4883 13.1639 14.3548 12.8157C16.3715 11.6621 17.7305 9.48975 17.7305 7C17.7305 3.30228 14.7329 0.304688 11.0352 0.304688C7.33744 0.304688 4.33984 3.30228 4.33984 7C4.33984 9.48941 5.69847 11.6615 7.71468 12.8152C6.78403 13.101 5.89377 13.5078 5.07196 14.0292C4.10416 14.6433 3.14162 15.5947 2.46965 16.318C2.1215 16.6928 1.82706 17.0331 1.61916 17.2803C1.51495 17.4042 1.43182 17.5054 1.37384 17.5769C1.34483 17.6126 1.32206 17.641 1.30605 17.661L1.28713 17.6848L1.28158 17.6918L1.2798 17.694L1.2787 17.6954C1.27859 17.6956 1.2787 17.6954 2.45703 18.6236C2.45703 18.6236 3.00916 17.9227 3.77128 17.1236C4.39465 16.47 5.1585 15.7508 5.87562 15.2958C7.46946 14.2844 9.37502 13.7682 11.3125 13.8228C13.25 13.8774 15.1174 14.5 16.6404 15.5991C17.2439 16.0346 17.8199 16.5999 18.2955 17.1236ZM16.2305 7C16.2305 9.86929 13.9044 12.1953 11.0352 12.1953C8.16587 12.1953 5.83985 9.86929 5.83985 7C5.83985 4.13071 8.16587 1.80469 11.0352 1.80469C13.9044 1.80469 16.2305 4.13071 16.2305 7Z" fill="#163152"/>
<path opacity="0.2" fill-rule="evenodd" clip-rule="evenodd" d="M11.0352 12.1953C13.9044 12.1953 16.2305 9.86929 16.2305 7C16.2305 4.13071 13.9044 1.80469 11.0352 1.80469C8.16586 1.80469 5.83984 4.13071 5.83984 7C5.83984 9.86929 8.16586 12.1953 11.0352 12.1953ZM19.5117 18.6236C19.5117 18.6236 18.1635 16.6983 16.6404 15.5991C15.1174 14.5 13.25 13.8774 11.3125 13.8228C9.37501 13.7682 7.46946 14.2844 5.87561 15.2958C4.28177 16.3071 2.45703 18.6236 2.45703 18.6236H19.5117Z" fill="#163152"/>
</svg>
